<?xml version="1.0" standalone="no"?>
<!DOCTYPE svg PUBLIC "-//W3C//DTD SVG 1.1//EN" "http://www.w3.org/Graphics/SVG/1.1/DTD/svg11.dtd">
<svg width="3000px" height="3000px" version="1.1" xmlns="http://www.w3.org/2000/svg" xmlns:xlink="http://www.w3.org/1999/xlink">
<g id="ideograms">
<g id="highlight0">
</g>
<g id="highlight1">
<path d="M 2654.799,1160.129 A1203.775,1203.775 0.000 0,1 2703.712,1512.288 L 2723.711,1512.492 A1223.775,1223.775 0.000 0,0 2673.986,1154.482 Z " style="stroke-width: 1.0; stroke: rgb(0,0,0);  fill: rgb(46,229,198); " />
<path d="M 2299.675,600.225 A1203.775,1203.775 0.000 0,1 2656.755,1166.847 L 2675.974,1161.312 A1223.775,1223.775 0.000 0,0 2312.961,585.276 Z " style="stroke-width: 1.0; stroke: rgb(0,0,0);  fill: rgb(46,94,230); " />
<path d="M 1496.502,296.230 A1203.775,1203.775 0.000 0,1 2304.891,604.888 L 2318.264,590.017 A1223.775,1223.775 0.000 0,0 1496.443,276.230 Z " style="stroke-width: 1.0; stroke: rgb(0,0,0);  fill: rgb(230,46,230); " />
</g>
<path d="M 1496.440,275.005 A1225.000,1225.000 0.000 0,1 2724.936,1512.505 L 2774.934,1513.015 A1275.000,1275.000 0.000 0,0 1496.295,225.005 Z " style="stroke: none;   fill: rgb(230,46,46); " />
<g id="highlight0">
</g>
<g id="highlight1">
</g>
<g id="highlight0">
<path d="M 2693.465,1527.189 A1193.775,1193.775 0.000 0,1 2366.884,2320.738 L 2381.407,2334.488 A1213.775,1213.775 0.000 0,0 2713.460,1527.645 Z " style="stroke-width: 1.0; stroke: rgb(0,0,0);  fill: rgb(230,46,46); " />
<path d="M 1877.309,2632.580 A1193.775,1193.775 0.000 0,1 1688.808,2678.750 L 1691.971,2698.498 A1213.775,1213.775 0.000 0,0 1883.630,2651.554 Z " style="stroke-width: 1.0; stroke: rgb(0,0,0);  fill: rgb(224,230,46); " />
<path d="M 2371.640,2315.685 A1193.775,1193.775 0.000 0,1 1870.719,2634.754 L 1876.930,2653.765 A1213.775,1213.775 0.000 0,0 2386.243,2329.351 Z " style="stroke-width: 1.0; stroke: rgb(0,0,0);  fill: rgb(76,230,46); " />
</g>
<g id="highlight1">
</g>
<path d="M 2724.682,1527.900 A1225.000,1225.000 0.000 0,1 1693.746,2709.582 L 1701.654,2758.952 A1275.000,1275.000 0.000 0,0 2774.669,1529.039 Z " style="stroke: none;   fill: rgb(230,46,230); " />
<g id="highlight0">
</g>
<g id="highlight1">
</g>
<g id="highlight0">
</g>
<g id="highlight1">
<path d="M 1086.422,2630.499 A1203.775,1203.775 0.000 0,1 714.345,2412.042 L 701.292,2427.195 A1223.775,1223.775 0.000 0,0 1079.551,2649.281 Z " style="stroke-width: 1.0; stroke: rgb(0,0,0);  fill: rgb(46,229,198); " />
<path d="M 719.660,2416.593 A1203.775,1203.775 0.000 0,1 478.473,2136.833 L 461.500,2147.413 A1223.775,1223.775 0.000 0,0 706.695,2431.822 Z " style="stroke-width: 1.0; stroke: rgb(0,0,0);  fill: rgb(46,94,230); " />
<path d="M 1675.434,2690.923 A1203.775,1203.775 0.000 0,1 1079.858,2628.076 L 1072.878,2646.818 A1223.775,1223.775 0.000 0,0 1678.349,2710.709 Z " style="stroke-width: 1.0; stroke: rgb(0,0,0);  fill: rgb(230,46,230); " />
</g>
<path d="M 1678.527,2711.921 A1225.000,1225.000 0.000 0,1 460.461,2148.061 L 418.031,2174.513 A1275.000,1275.000 0.000 0,0 1685.814,2761.387 Z " style="stroke: none;   fill: rgb(76,230,46); " />
<g id="highlight0">
</g>
<g id="highlight1">
</g>
<g id="highlight0">
<path d="M 479.101,2118.759 A1193.775,1193.775 0.000 0,1 306.439,1477.407 L 286.442,1477.028 A1213.775,1213.775 0.000 0,0 461.997,2129.126 Z " style="stroke-width: 1.0; stroke: rgb(0,0,0);  fill: rgb(230,46,46); " />
<path d="M 365.098,1129.734 A1193.775,1193.775 0.000 0,1 424.578,981.767 L 406.560,973.085 A1213.775,1213.775 0.000 0,0 346.085,1123.531 Z " style="stroke-width: 1.0; stroke: rgb(0,0,0);  fill: rgb(224,230,46); " />
<path d="M 306.328,1484.345 A1193.775,1193.775 0.000 0,1 367.270,1123.144 L 348.292,1116.830 A1213.775,1213.775 0.000 0,0 286.329,1484.082 Z " style="stroke-width: 1.0; stroke: rgb(0,0,0);  fill: rgb(76,230,46); " />
</g>
<g id="highlight1">
</g>
<path d="M 452.397,2134.944 A1225.000,1225.000 0.000 0,1 396.448,968.212 L 351.405,946.506 A1275.000,1275.000 0.000 0,0 409.638,2160.860 Z " style="stroke: none;   fill: rgb(46,94,230); " />
<g id="highlight0">
</g>
<g id="highlight1">
</g>
<g id="highlight0">
<path d="M 682.259,630.289 A1193.775,1193.775 0.000 0,1 971.983,429.348 L 963.136,411.410 A1213.775,1213.775 0.000 0,0 668.559,615.718 Z " style="stroke-width: 1.0; stroke: rgb(0,0,0);  fill: rgb(230,46,46); " />
<path d="M 965.768,432.435 A1193.775,1193.775 0.000 0,1 1047.884,395.152 L 1040.310,376.641 A1213.775,1213.775 0.000 0,0 956.818,414.549 Z " style="stroke-width: 1.0; stroke: rgb(0,0,0);  fill: rgb(224,230,46); " />
<path d="M 431.176,968.291 A1193.775,1193.775 0.000 0,1 687.328,625.550 L 673.712,610.900 A1213.775,1213.775 0.000 0,0 413.270,959.383 Z " style="stroke-width: 1.0; stroke: rgb(0,0,0);  fill: rgb(76,230,46); " />
</g>
<g id="highlight1">
</g>
<path d="M 403.220,954.383 A1225.000,1225.000 0.000 0,1 1036.058,366.253 L 1017.122,319.977 A1275.000,1275.000 0.000 0,0 358.453,932.113 Z " style="stroke: none;   fill: rgb(46,229,198); " />
<g id="highlight0">
</g>
<g id="highlight1">
</g>
<g id="highlight0">
</g>
<g id="highlight1">
<path d="M 1390.561,301.210 A1203.775,1203.775 0.000 0,1 1481.371,296.369 L 1481.062,276.372 A1223.775,1223.775 0.000 0,0 1388.743,281.293 Z " style="stroke-width: 1.0; stroke: rgb(0,0,0);  fill: rgb(46,229,198); " />
<path d="M 1238.577,324.954 A1203.775,1203.775 0.000 0,1 1397.531,300.594 L 1395.829,280.667 A1223.775,1223.775 0.000 0,0 1234.233,305.432 Z " style="stroke-width: 1.0; stroke: rgb(0,0,0);  fill: rgb(46,94,230); " />
<path d="M 1058.136,380.254 A1203.775,1203.775 0.000 0,1 1245.411,323.455 L 1241.181,303.907 A1223.775,1223.775 0.000 0,0 1050.795,361.650 Z " style="stroke-width: 1.0; stroke: rgb(0,0,0);  fill: rgb(230,46,230); " />
</g>
<path d="M 1050.345,360.511 A1225.000,1225.000 0.000 0,1 1481.043,275.147 L 1480.269,225.153 A1275.000,1275.000 0.000 0,0 1031.992,314.001 Z " style="stroke: none;   fill: rgb(224,230,46); " />
<g id="highlight0">
</g>
<g id="highlight1">
</g>
</g>
<g id="cellvalues">
<path d="M 1394.046,300.897 A 1203.775,1203.775 0.00 0,1 1477.9,296.4 Q 1500.0,1500.0 968.9,430.9 A 1193.775,1193.775 0.00 0,1 1044.7,396.5 Q 1500.0,1500.0 1394.0,300.9 Z" style="stroke-width: 1.0;  stroke: rgb(0,0,0); fill: rgb(224,230,46); opacity: 0.833;"/>
</g>
<g id="cellvalues">
<path d="M 1241.993,324.200 A 1203.775,1203.775 0.00 0,1 1394.0,300.9 Q 1500.0,1500.0 366.2,1126.4 A 1193.775,1193.775 0.00 0,1 423.1,984.9 Q 1500.0,1500.0 1242.0,324.2 Z" style="stroke-width: 1.0;  stroke: rgb(0,0,0); fill: rgb(224,230,46); opacity: 0.833;"/>
</g>
<g id="cellvalues">
<path d="M 1061.392,378.975 A 1203.775,1203.775 0.00 0,1 1242.0,324.2 Q 1500.0,1500.0 1874.0,2633.7 A 1193.775,1193.775 0.00 0,1 1692.2,2678.2 Q 1500.0,1500.0 1061.4,379.0 Z" style="stroke-width: 1.0;  stroke: rgb(0,0,0); fill: rgb(224,230,46); opacity: 0.833;"/>
</g>
<g id="cellvalues">
<path d="M 2655.782,1163.486 A 1203.775,1203.775 0.00 0,1 2703.7,1508.8 Q 1500.0,1500.0 684.8,627.9 A 1193.775,1193.775 0.00 0,1 968.9,430.9 Q 1500.0,1500.0 2655.8,1163.5 Z" style="stroke-width: 1.0;  stroke: rgb(0,0,0); fill: rgb(230,46,46); opacity: 0.833;"/>
</g>
<g id="cellvalues">
<path d="M 716.999,2414.322 A 1203.775,1203.775 0.00 0,1 480.3,2139.8 Q 1500.0,1500.0 306.4,1480.9 A 1193.775,1193.775 0.00 0,1 366.2,1126.4 Q 1500.0,1500.0 717.0,2414.3 Z" style="stroke-width: 1.0;  stroke: rgb(0,0,0); fill: rgb(76,230,46); opacity: 0.833;"/>
</g>
<g id="cellvalues">
<path d="M 1083.139,2629.292 A 1203.775,1203.775 0.00 0,1 717.0,2414.3 Q 1500.0,1500.0 432.7,965.2 A 1193.775,1193.775 0.00 0,1 684.8,627.9 Q 1500.0,1500.0 1083.1,2629.3 Z" style="stroke-width: 1.0;  stroke: rgb(0,0,0); fill: rgb(76,230,46); opacity: 0.833;"/>
</g>
<g id="cellvalues">
<path d="M 1671.972,2691.428 A 1203.775,1203.775 0.00 0,1 1083.1,2629.3 Q 1500.0,1500.0 2369.3,2318.2 A 1193.775,1193.775 0.00 0,1 1874.0,2633.7 Q 1500.0,1500.0 1672.0,2691.4 Z" style="stroke-width: 1.0;  stroke: rgb(0,0,0); fill: rgb(76,230,46); opacity: 0.833;"/>
</g>
<g id="cellvalues">
<path d="M 2302.286,602.553 A 1203.775,1203.775 0.00 0,1 2655.8,1163.5 Q 1500.0,1500.0 477.3,2115.8 A 1193.775,1193.775 0.00 0,1 306.4,1480.9 Q 1500.0,1500.0 2302.3,602.6 Z" style="stroke-width: 1.0;  stroke: rgb(0,0,0); fill: rgb(230,46,46); opacity: 0.833;"/>
</g>
<g id="cellvalues">
<path d="M 1500.000,296.225 A 1203.775,1203.775 0.00 0,1 2302.3,602.6 Q 1500.0,1500.0 2693.4,1530.7 A 1193.775,1193.775 0.00 0,1 2369.3,2318.2 Q 1500.0,1500.0 1500.0,296.2 Z" style="stroke-width: 1.0;  stroke: rgb(0,0,0); fill: rgb(230,46,46); opacity: 0.833;"/>
</g>
<g id="plot0">
<g id="plot0-axis">
</g>
<text x="2492.9" y="548.8" style="fill: rgb(0,0,0); font-size: 48.0px; text-anchor: start" transform="rotate(315.2,2492.9,548.8)">A</text>
<text x="546.2" y="509.6" style="fill: rgb(0,0,0); font-size: 48.0px; text-anchor: end" transform="rotate(47.1,546.2,509.6)">D</text>
<text x="945.6" y="2758.3" style="fill: rgb(0,0,0); font-size: 48.0px; text-anchor: end" transform="rotate(294.8,945.6,2758.3)">C</text>
<text x="1208.7" y="156.2" style="fill: rgb(0,0,0); font-size: 48.0px; text-anchor: end" transform="rotate(78.8,1208.7,156.2)">B</text>
<text x="128.0" y="1590.3" style="fill: rgb(0,0,0); font-size: 48.0px; text-anchor: end" transform="rotate(357.3,128.0,1590.3)">E</text>
<text x="2519.8" y="2422.3" style="fill: rgb(0,0,0); font-size: 48.0px; text-anchor: start" transform="rotate(41.1,2519.8,2422.3)">F</text>
</g>
</svg>
