<?xml version="1.0" standalone="no"?>
<!DOCTYPE svg PUBLIC "-//W3C//DTD SVG 1.1//EN" "http://www.w3.org/Graphics/SVG/1.1/DTD/svg11.dtd">
<svg width="3000px" height="3000px" version="1.1" xmlns="http://www.w3.org/2000/svg" xmlns:xlink="http://www.w3.org/1999/xlink">
<g id="ideograms">
<g id="highlight0">
</g>
<g id="highlight1">
<path d="M 2250.642,558.931 A1203.775,1203.775 0.000 0,1 2530.041,877.032 L 2547.155,866.682 A1223.775,1223.775 0.000 0,0 2263.113,543.296 Z " style="stroke-width: 1.0; stroke: rgb(0,0,0); fill: rgb(107,230,46); " />
<path d="M 2669.334,1214.112 A1203.775,1203.775 0.000 0,1 2682.611,1275.268 L 2702.260,1271.534 A1223.775,1223.775 0.000 0,0 2688.762,1209.363 Z " style="stroke-width: 1.0; stroke: rgb(0,0,0); fill: rgb(46,66,230); " />
<path d="M 2623.542,1067.879 A1203.775,1203.775 0.000 0,1 2670.805,1220.196 L 2690.257,1215.547 A1223.775,1223.775 0.000 0,0 2642.209,1060.700 Z " style="stroke-width: 1.0; stroke: rgb(0,0,0); fill: rgb(46,229,87); " />
<path d="M 1496.871,296.229 A1203.775,1203.775 0.000 0,1 2255.525,562.846 L 2268.077,547.276 A1223.775,1223.775 0.000 0,0 1496.819,276.229 Z " style="stroke-width: 1.0; stroke: rgb(0,0,0); fill: rgb(230,148,46); " />
<path d="M 2526.788,871.685 A1203.775,1203.775 0.000 0,1 2625.773,1073.726 L 2644.477,1066.644 A1223.775,1223.775 0.000 0,0 2543.848,861.246 Z " style="stroke-width: 1.0; stroke: rgb(0,0,0); fill: rgb(46,230,189); " />
</g>
<path d="M 1496.815,275.004 A1225.000,1225.000 0.000 0,1 2703.463,1271.306 L 2752.584,1261.971 A1275.000,1275.000 0.000 0,0 1496.685,225.004 Z " style="stroke: none;  fill: rgb(230,46,46); " />
<g id="highlight0">
</g>
<g id="highlight1">
</g>
<g id="highlight0">
</g>
<g id="highlight1">
<path d="M 2702.092,1436.370 A1203.775,1203.775 0.000 0,1 2702.938,1455.127 L 2722.924,1454.382 A1223.775,1223.775 0.000 0,0 2722.064,1435.313 Z " style="stroke-width: 1.0; stroke: rgb(0,0,0); fill: rgb(107,230,46); " />
<path d="M 2685.375,1290.335 A1203.775,1203.775 0.000 0,1 2695.786,1361.543 L 2715.653,1359.242 A1223.775,1223.775 0.000 0,0 2705.070,1286.851 Z " style="stroke-width: 1.0; stroke: rgb(0,0,0); fill: rgb(46,66,230); " />
<path d="M 2698.698,1389.556 A1203.775,1203.775 0.000 0,1 2701.164,1420.751 L 2721.120,1419.435 A1223.775,1223.775 0.000 0,0 2718.613,1387.721 Z " style="stroke-width: 1.0; stroke: rgb(0,0,0); fill: rgb(46,229,87); " />
<path d="M 2695.050,1355.328 A1203.775,1203.775 0.000 0,1 2699.256,1395.789 L 2719.181,1394.058 A1223.775,1223.775 0.000 0,0 2714.905,1352.924 Z " style="stroke-width: 1.0; stroke: rgb(0,0,0); fill: rgb(230,148,46); " />
<path d="M 2700.735,1414.507 A1203.775,1203.775 0.000 0,1 2702.407,1442.621 L 2722.384,1441.668 A1223.775,1223.775 0.000 0,0 2720.685,1413.087 Z " style="stroke-width: 1.0; stroke: rgb(0,0,0); fill: rgb(46,230,189); " />
</g>
<path d="M 2706.276,1286.638 A1225.000,1225.000 0.000 0,1 2724.149,1454.336 L 2774.114,1452.472 A1275.000,1275.000 0.000 0,0 2755.512,1277.929 Z " style="stroke: none;  fill: rgb(230,46,230); " />
<g id="highlight0">
</g>
<g id="highlight1">
</g>
<g id="highlight0">
</g>
<g id="highlight1">
<path d="M 2654.402,1841.217 A1203.775,1203.775 0.000 0,1 2642.214,1880.028 L 2661.191,1886.342 A1223.775,1223.775 0.000 0,0 2673.582,1846.886 Z " style="stroke-width: 1.0; stroke: rgb(0,0,0); fill: rgb(107,230,46); " />
<path d="M 2687.894,1694.889 A1203.775,1203.775 0.000 0,1 2676.161,1756.359 L 2695.702,1760.619 A1223.775,1223.775 0.000 0,0 2707.630,1698.127 Z " style="stroke-width: 1.0; stroke: rgb(0,0,0); fill: rgb(46,66,230); " />
<path d="M 2703.412,1470.438 A1203.775,1203.775 0.000 0,1 2686.865,1701.062 L 2706.584,1704.403 A1223.775,1223.775 0.000 0,0 2723.406,1469.947 Z " style="stroke-width: 1.0; stroke: rgb(0,0,0); fill: rgb(46,229,87); " />
<path d="M 2666.054,1798.986 A1203.775,1203.775 0.000 0,1 2652.613,1847.215 L 2671.763,1852.983 A1223.775,1223.775 0.000 0,0 2685.427,1803.954 Z " style="stroke-width: 1.0; stroke: rgb(0,0,0); fill: rgb(230,148,46); " />
<path d="M 2677.478,1750.241 A1203.775,1203.775 0.000 0,1 2664.484,1805.045 L 2683.831,1810.113 A1223.775,1223.775 0.000 0,0 2697.041,1754.398 Z " style="stroke-width: 1.0; stroke: rgb(0,0,0); fill: rgb(46,230,189); " />
</g>
<path d="M 2724.631,1469.917 A1225.000,1225.000 0.000 0,1 2662.354,1886.729 L 2709.797,1902.514 A1275.000,1275.000 0.000 0,0 2774.615,1468.689 Z " style="stroke: none;  fill: rgb(128,46,230); " />
<g id="highlight0">
</g>
<g id="highlight1">
</g>
<g id="highlight0">
</g>
<g id="highlight1">
<path d="M 2637.286,1894.532 A1203.775,1203.775 0.000 0,1 2537.719,2110.094 L 2554.960,2120.230 A1223.775,1223.775 0.000 0,0 2656.181,1901.087 Z " style="stroke-width: 1.0; stroke: rgb(0,0,0); fill: rgb(107,230,46); " />
<path d="M 2420.337,2275.921 A1203.775,1203.775 0.000 0,1 2309.689,2390.774 L 2323.141,2405.574 A1223.775,1223.775 0.000 0,0 2435.628,2288.813 Z " style="stroke-width: 1.0; stroke: rgb(0,0,0); fill: rgb(46,66,230); " />
<path d="M 2314.309,2386.552 A1203.775,1203.775 0.000 0,1 2212.855,2470.006 L 2224.698,2486.123 A1223.775,1223.775 0.000 0,0 2327.839,2401.282 Z " style="stroke-width: 1.0; stroke: rgb(0,0,0); fill: rgb(46,229,87); " />
<path d="M 2217.888,2466.287 A1203.775,1203.775 0.000 0,1 2140.423,2519.281 L 2151.063,2536.215 A1223.775,1223.775 0.000 0,0 2229.816,2482.341 Z " style="stroke-width: 1.0; stroke: rgb(0,0,0); fill: rgb(230,148,46); " />
<path d="M 2540.877,2104.690 A1203.775,1203.775 0.000 0,1 2416.291,2280.696 L 2431.514,2293.666 A1223.775,1223.775 0.000 0,0 2558.170,2114.737 Z " style="stroke-width: 1.0; stroke: rgb(0,0,0); fill: rgb(46,230,189); " />
</g>
<path d="M 2657.338,1901.488 A1225.000,1225.000 0.000 0,1 2151.715,2537.253 L 2178.315,2579.589 A1275.000,1275.000 0.000 0,0 2704.577,1917.876 Z " style="stroke: none;  fill: rgb(209,230,46); " />
<g id="highlight0">
</g>
<g id="highlight1">
</g>
<g id="highlight0">
</g>
<g id="highlight1">
<path d="M 1769.620,2673.192 A1203.775,1203.775 0.000 0,1 1661.907,2692.837 L 1664.597,2712.655 A1223.775,1223.775 0.000 0,0 1774.100,2692.684 Z " style="stroke-width: 1.0; stroke: rgb(0,0,0); fill: rgb(107,230,46); " />
<path d="M 1668.106,2691.979 A1203.775,1203.775 0.000 0,1 1571.605,2701.643 L 1572.794,2721.608 A1223.775,1223.775 0.000 0,0 1670.899,2711.783 Z " style="stroke-width: 1.0; stroke: rgb(0,0,0); fill: rgb(46,66,230); " />
<path d="M 2127.401,2527.347 A1203.775,1203.775 0.000 0,1 1934.041,2622.801 L 1941.252,2641.456 A1223.775,1223.775 0.000 0,0 2137.825,2544.416 Z " style="stroke-width: 1.0; stroke: rgb(0,0,0); fill: rgb(46,229,87); " />
<path d="M 1577.851,2701.255 A1203.775,1203.775 0.000 0,1 1521.576,2703.582 L 1521.934,2723.578 A1223.775,1223.775 0.000 0,0 1579.145,2721.213 Z " style="stroke-width: 1.0; stroke: rgb(0,0,0); fill: rgb(230,148,46); " />
<path d="M 1939.873,2620.529 A1203.775,1203.775 0.000 0,1 1763.517,2674.578 L 1767.895,2694.093 A1223.775,1223.775 0.000 0,0 1947.181,2639.146 Z " style="stroke-width: 1.0; stroke: rgb(0,0,0); fill: rgb(46,230,189); " />
</g>
<path d="M 2138.463,2545.462 A1225.000,1225.000 0.000 0,1 1521.956,2724.803 L 1522.852,2774.795 A1275.000,1275.000 0.000 0,0 2164.523,2588.133 Z " style="stroke: none;  fill: rgb(46,168,230); " />
<g id="highlight0">
</g>
<g id="highlight1">
</g>
<g id="highlight0">
<path d="M 1506.207,2693.759 A1193.775,1193.775 0.000 0,1 1092.507,2622.073 L 1085.680,2640.872 A1213.775,1213.775 0.000 0,0 1506.311,2713.759 Z " style="stroke-width: 1.0; stroke: rgb(0,0,0); fill: rgb(230,46,46); " />
<path d="M 775.162,2448.530 A1193.775,1193.775 0.000 0,1 760.456,2437.109 L 748.066,2452.809 A1213.775,1213.775 0.000 0,0 763.019,2464.421 Z " style="stroke-width: 1.0; stroke: rgb(0,0,0); fill: rgb(230,46,230); " />
<path d="M 802.579,2468.867 A1193.775,1193.775 0.000 0,1 770.240,2444.749 L 758.014,2460.576 A1213.775,1213.775 0.000 0,0 790.895,2485.099 Z " style="stroke-width: 1.0; stroke: rgb(0,0,0); fill: rgb(128,46,230); " />
<path d="M 1098.346,2624.177 A1193.775,1193.775 0.000 0,1 882.838,2521.866 L 872.498,2538.986 A1213.775,1213.775 0.000 0,0 1091.617,2643.011 Z " style="stroke-width: 1.0; stroke: rgb(0,0,0); fill: rgb(209,230,46); " />
<path d="M 888.159,2525.061 A1193.775,1193.775 0.000 0,1 797.551,2465.228 L 785.783,2481.399 A1213.775,1213.775 0.000 0,0 877.908,2542.234 Z " style="stroke-width: 1.0; stroke: rgb(0,0,0); fill: rgb(46,168,230); " />
</g>
<g id="highlight1">
</g>
<path d="M 1506.369,2724.983 A1225.000,1225.000 0.000 0,1 741.112,2461.621 L 710.137,2500.870 A1275.000,1275.000 0.000 0,0 1506.629,2774.983 Z " style="stroke: none;  fill: rgb(107,230,46); " />
<g id="highlight0">
</g>
<g id="highlight1">
</g>
<g id="highlight0">
<path d="M 537.230,2205.813 A1193.775,1193.775 0.000 0,1 500.151,2152.228 L 483.400,2163.155 A1213.775,1213.775 0.000 0,0 521.100,2217.638 Z " style="stroke-width: 1.0; stroke: rgb(0,0,0); fill: rgb(230,46,46); " />
<path d="M 577.177,2257.295 A1193.775,1193.775 0.000 0,1 533.573,2200.798 L 517.382,2212.539 A1213.775,1213.775 0.000 0,0 561.716,2269.983 Z " style="stroke-width: 1.0; stroke: rgb(0,0,0); fill: rgb(230,46,230); " />
<path d="M 503.556,2157.418 A1193.775,1193.775 0.000 0,1 470.737,2104.745 L 453.493,2114.876 A1213.775,1213.775 0.000 0,0 486.862,2168.432 Z " style="stroke-width: 1.0; stroke: rgb(0,0,0); fill: rgb(128,46,230); " />
<path d="M 748.591,2427.623 A1193.775,1193.775 0.000 0,1 634.695,2322.403 L 620.198,2336.181 A1213.775,1213.775 0.000 0,0 736.003,2443.164 Z " style="stroke-width: 1.0; stroke: rgb(0,0,0); fill: rgb(209,230,46); " />
<path d="M 638.983,2326.891 A1193.775,1193.775 0.000 0,1 573.252,2252.487 L 557.726,2265.094 A1213.775,1213.775 0.000 0,0 624.558,2340.744 Z " style="stroke-width: 1.0; stroke: rgb(0,0,0); fill: rgb(46,168,230); " />
</g>
<g id="highlight1">
</g>
<path d="M 728.937,2451.886 A1225.000,1225.000 0.000 0,1 443.815,2120.563 L 400.705,2145.892 A1275.000,1275.000 0.000 0,0 697.465,2490.739 Z " style="stroke: none;  fill: rgb(46,66,230); " />
<g id="highlight0">
</g>
<g id="highlight1">
</g>
<g id="highlight0">
<path d="M 320.452,1683.755 A1193.775,1193.775 0.000 0,1 306.513,1526.214 L 286.518,1526.653 A1213.775,1213.775 0.000 0,0 300.691,1686.833 Z " style="stroke-width: 1.0; stroke: rgb(0,0,0); fill: rgb(230,46,46); " />
<path d="M 309.746,1408.378 A1193.775,1193.775 0.000 0,1 312.530,1377.470 L 292.636,1375.417 A1213.775,1213.775 0.000 0,0 289.805,1406.843 Z " style="stroke-width: 1.0; stroke: rgb(0,0,0); fill: rgb(230,46,230); " />
<path d="M 463.125,2091.599 A1193.775,1193.775 0.000 0,1 369.145,1882.447 L 350.199,1888.854 A1213.775,1213.775 0.000 0,0 445.754,2101.510 Z " style="stroke-width: 1.0; stroke: rgb(0,0,0); fill: rgb(128,46,230); " />
<path d="M 306.665,1532.419 A1193.775,1193.775 0.000 0,1 310.239,1402.190 L 290.306,1400.552 A1213.775,1213.775 0.000 0,0 286.673,1532.962 Z " style="stroke-width: 1.0; stroke: rgb(0,0,0); fill: rgb(209,230,46); " />
<path d="M 371.149,1888.321 A1193.775,1193.775 0.000 0,1 319.513,1677.619 L 299.735,1680.595 A1213.775,1213.775 0.000 0,0 352.236,1894.827 Z " style="stroke-width: 1.0; stroke: rgb(0,0,0); fill: rgb(46,168,230); " />
</g>
<g id="highlight1">
</g>
<path d="M 436.004,2107.073 A1225.000,1225.000 0.000 0,1 281.470,1374.265 L 231.734,1369.133 A1275.000,1275.000 0.000 0,0 392.576,2131.851 Z " style="stroke: none;  fill: rgb(46,229,87); " />
<g id="highlight0">
</g>
<g id="highlight1">
</g>
<g id="highlight0">
<path d="M 314.185,1362.369 A1193.775,1193.775 0.000 0,1 665.426,646.428 L 651.444,632.128 A1213.775,1213.775 0.000 0,0 294.319,1360.064 Z " style="stroke-width: 1.0; stroke: rgb(0,0,0); fill: rgb(230,46,46); " />
<path d="M 795.570,536.217 A1193.775,1193.775 0.000 0,1 831.106,511.223 L 819.899,494.658 A1213.775,1213.775 0.000 0,0 783.769,520.070 Z " style="stroke-width: 1.0; stroke: rgb(0,0,0); fill: rgb(230,46,230); " />
<path d="M 763.407,560.569 A1193.775,1193.775 0.000 0,1 800.591,532.568 L 788.873,516.360 A1213.775,1213.775 0.000 0,0 751.067,544.830 Z " style="stroke-width: 1.0; stroke: rgb(0,0,0); fill: rgb(128,46,230); " />
<path d="M 660.999,650.779 A1193.775,1193.775 0.000 0,1 729.712,587.994 L 716.807,572.714 A1213.775,1213.775 0.000 0,0 646.943,636.551 Z " style="stroke-width: 1.0; stroke: rgb(0,0,0); fill: rgb(209,230,46); " />
<path d="M 724.981,592.011 A1193.775,1193.775 0.000 0,1 768.302,556.752 L 756.043,540.949 A1213.775,1213.775 0.000 0,0 711.997,576.799 Z " style="stroke-width: 1.0; stroke: rgb(0,0,0); fill: rgb(46,168,230); " />
</g>
<g id="highlight1">
</g>
<path d="M 283.168,1358.769 A1225.000,1225.000 0.000 0,1 813.610,485.360 L 785.594,443.947 A1275.000,1275.000 0.000 0,0 233.502,1353.005 Z " style="stroke: none;  fill: rgb(230,148,46); " />
<g id="highlight0">
</g>
<g id="highlight1">
</g>
<g id="highlight0">
<path d="M 843.742,502.792 A1193.775,1193.775 0.000 0,1 1037.904,399.288 L 1030.163,380.847 A1213.775,1213.775 0.000 0,0 832.747,486.085 Z " style="stroke-width: 1.0; stroke: rgb(0,0,0); fill: rgb(230,46,46); " />
<path d="M 1453.787,307.120 A1193.775,1193.775 0.000 0,1 1481.706,306.365 L 1481.400,286.368 A1213.775,1213.775 0.000 0,0 1453.012,287.135 Z " style="stroke-width: 1.0; stroke: rgb(0,0,0); fill: rgb(230,46,230); " />
<path d="M 1404.224,310.073 A1193.775,1193.775 0.000 0,1 1459.989,306.896 L 1459.319,286.907 A1213.775,1213.775 0.000 0,0 1402.620,290.138 Z " style="stroke-width: 1.0; stroke: rgb(0,0,0); fill: rgb(128,46,230); " />
<path d="M 1032.188,401.706 A1193.775,1193.775 0.000 0,1 1235.645,335.863 L 1231.216,316.359 A1213.775,1213.775 0.000 0,0 1024.350,383.305 Z " style="stroke-width: 1.0; stroke: rgb(0,0,0); fill: rgb(209,230,46); " />
<path d="M 1229.596,337.253 A1193.775,1193.775 0.000 0,1 1410.412,309.591 L 1408.911,289.648 A1213.775,1213.775 0.000 0,0 1225.066,317.773 Z " style="stroke-width: 1.0; stroke: rgb(0,0,0); fill: rgb(46,168,230); " />
</g>
<g id="highlight1">
</g>
<path d="M 826.577,476.708 A1225.000,1225.000 0.000 0,1 1481.228,275.144 L 1480.462,225.150 A1275.000,1275.000 0.000 0,0 799.090,434.941 Z " style="stroke: none;  fill: rgb(46,230,189); " />
<g id="highlight0">
</g>
<g id="highlight1">
</g>
</g>
<g id="cellvalues">
<path d="M 2702.253,1439.496 A 1203.775,1203.775 0.00 0,1 2702.8,1452.0 Q 1500.0,1500.0 772.7,2446.6 A 1193.775,1193.775 0.00 0,1 762.9,2439.0 Q 1500.0,1500.0 2702.3,1439.5 Z" style="stroke-width: 1.0;  stroke: rgb(0,0,0); fill: rgb(230,46,230); opacity: 0.800;"/>
</g>
<g id="cellvalues">
<path d="M 2700.953,1417.629 A 1203.775,1203.775 0.00 0,1 2702.3,1439.5 Q 1500.0,1500.0 1456.9,307.0 A 1193.775,1193.775 0.00 0,1 1478.6,306.4 Q 1500.0,1500.0 2701.0,1417.6 Z" style="stroke-width: 1.0;  stroke: rgb(0,0,0); fill: rgb(230,46,230); opacity: 0.800;"/>
</g>
<g id="cellvalues">
<path d="M 2698.981,1392.672 A 1203.775,1203.775 0.00 0,1 2701.0,1417.6 Q 1500.0,1500.0 310.0,1405.3 A 1193.775,1193.775 0.00 0,1 312.2,1380.6 Q 1500.0,1500.0 2699.0,1392.7 Z" style="stroke-width: 1.0;  stroke: rgb(0,0,0); fill: rgb(230,46,230); opacity: 0.800;"/>
</g>
<g id="cellvalues">
<path d="M 2653.512,1844.217 A 1203.775,1203.775 0.00 0,1 2643.2,1877.1 Q 1500.0,1500.0 800.1,2467.1 A 1193.775,1193.775 0.00 0,1 772.7,2446.6 Q 1500.0,1500.0 2653.5,1844.2 Z" style="stroke-width: 1.0;  stroke: rgb(0,0,0); fill: rgb(128,46,230); opacity: 0.800;"/>
<path d="M 2695.422,1358.435 A 1203.775,1203.775 0.00 0,1 2699.0,1392.7 Q 1500.0,1500.0 798.1,534.4 A 1193.775,1193.775 0.00 0,1 828.5,513.0 Q 1500.0,1500.0 2695.4,1358.4 Z" style="stroke-width: 1.0;  stroke: rgb(0,0,0); fill: rgb(230,46,230); opacity: 0.800;"/>
</g>
<g id="cellvalues">
<path d="M 2665.273,1802.017 A 1203.775,1203.775 0.00 0,1 2653.5,1844.2 Q 1500.0,1500.0 765.9,558.7 A 1193.775,1193.775 0.00 0,1 798.1,534.4 Q 1500.0,1500.0 2665.3,1802.0 Z" style="stroke-width: 1.0;  stroke: rgb(0,0,0); fill: rgb(128,46,230); opacity: 0.800;"/>
</g>
<g id="cellvalues">
<path d="M 2676.823,1753.301 A 1203.775,1203.775 0.00 0,1 2665.3,1802.0 Q 1500.0,1500.0 1407.3,309.8 A 1193.775,1193.775 0.00 0,1 1456.9,307.0 Q 1500.0,1500.0 2676.8,1753.3 Z" style="stroke-width: 1.0;  stroke: rgb(0,0,0); fill: rgb(128,46,230); opacity: 0.800;"/>
<path d="M 1574.728,2701.453 A 1203.775,1203.775 0.00 0,1 1524.7,2703.5 Q 1500.0,1500.0 727.3,590.0 A 1193.775,1193.775 0.00 0,1 765.9,558.7 Q 1500.0,1500.0 1574.7,2701.5 Z" style="stroke-width: 1.0;  stroke: rgb(0,0,0); fill: rgb(46,168,230); opacity: 0.800;"/>
</g>
<g id="cellvalues">
<path d="M 2687.384,1697.976 A 1203.775,1203.775 0.00 0,1 2676.8,1753.3 Q 1500.0,1500.0 501.9,2154.8 A 1193.775,1193.775 0.00 0,1 472.3,2107.4 Q 1500.0,1500.0 2687.4,1698.0 Z" style="stroke-width: 1.0;  stroke: rgb(0,0,0); fill: rgb(128,46,230); opacity: 0.800;"/>
<path d="M 2670.073,1217.153 A 1203.775,1203.775 0.00 0,1 2682.0,1272.2 Q 1500.0,1500.0 535.4,2203.3 A 1193.775,1193.775 0.00 0,1 501.9,2154.8 Q 1500.0,1500.0 2670.1,1217.2 Z" style="stroke-width: 1.0;  stroke: rgb(0,0,0); fill: rgb(230,46,46); opacity: 0.800;"/>
</g>
<g id="cellvalues">
<path d="M 2685.916,1293.417 A 1203.775,1203.775 0.00 0,1 2695.4,1358.4 Q 1500.0,1500.0 575.2,2254.9 A 1193.775,1193.775 0.00 0,1 535.4,2203.3 Q 1500.0,1500.0 2685.9,1293.4 Z" style="stroke-width: 1.0;  stroke: rgb(0,0,0); fill: rgb(230,46,230); opacity: 0.800;"/>
</g>
<g id="cellvalues">
<path d="M 1665.007,2692.412 A 1203.775,1203.775 0.00 0,1 1574.7,2701.5 Q 1500.0,1500.0 636.8,2324.6 A 1193.775,1193.775 0.00 0,1 575.2,2254.9 Q 1500.0,1500.0 1665.0,2692.4 Z" style="stroke-width: 1.0;  stroke: rgb(0,0,0); fill: rgb(46,168,230); opacity: 0.800;"/>
<path d="M 2215.374,2468.150 A 1203.775,1203.775 0.00 0,1 2143.1,2517.6 Q 1500.0,1500.0 663.2,648.6 A 1193.775,1193.775 0.00 0,1 727.3,590.0 Q 1500.0,1500.0 2215.4,2468.2 Z" style="stroke-width: 1.0;  stroke: rgb(0,0,0); fill: rgb(209,230,46); opacity: 0.800;"/>
</g>
<g id="cellvalues">
<path d="M 1766.569,2673.889 A 1203.775,1203.775 0.00 0,1 1665.0,2692.4 Q 1500.0,1500.0 885.5,2523.5 A 1193.775,1193.775 0.00 0,1 800.1,2467.1 Q 1500.0,1500.0 1766.6,2673.9 Z" style="stroke-width: 1.0;  stroke: rgb(0,0,0); fill: rgb(46,168,230); opacity: 0.800;"/>
</g>
<g id="cellvalues">
<path d="M 2312.002,2388.666 A 1203.775,1203.775 0.00 0,1 2215.4,2468.2 Q 1500.0,1500.0 306.6,1529.3 A 1193.775,1193.775 0.00 0,1 310.0,1405.3 Q 1500.0,1500.0 2312.0,2388.7 Z" style="stroke-width: 1.0;  stroke: rgb(0,0,0); fill: rgb(209,230,46); opacity: 0.800;"/>
</g>
<g id="cellvalues">
<path d="M 2418.317,2278.311 A 1203.775,1203.775 0.00 0,1 2312.0,2388.7 Q 1500.0,1500.0 746.2,2425.7 A 1193.775,1193.775 0.00 0,1 636.8,2324.6 Q 1500.0,1500.0 2418.3,2278.3 Z" style="stroke-width: 1.0;  stroke: rgb(0,0,0); fill: rgb(209,230,46); opacity: 0.800;"/>
<path d="M 2624.661,1070.801 A 1203.775,1203.775 0.00 0,1 2670.1,1217.2 Q 1500.0,1500.0 320.0,1680.7 A 1193.775,1193.775 0.00 0,1 306.6,1529.3 Q 1500.0,1500.0 2624.7,1070.8 Z" style="stroke-width: 1.0;  stroke: rgb(0,0,0); fill: rgb(230,46,46); opacity: 0.800;"/>
</g>
<g id="cellvalues">
<path d="M 1936.958,2621.669 A 1203.775,1203.775 0.00 0,1 1766.6,2673.9 Q 1500.0,1500.0 1232.6,336.6 A 1193.775,1193.775 0.00 0,1 1407.3,309.8 Q 1500.0,1500.0 1937.0,2621.7 Z" style="stroke-width: 1.0;  stroke: rgb(0,0,0); fill: rgb(46,168,230); opacity: 0.800;"/>
</g>
<g id="cellvalues">
<path d="M 2539.301,2107.394 A 1203.775,1203.775 0.00 0,1 2418.3,2278.3 Q 1500.0,1500.0 1035.0,400.5 A 1193.775,1193.775 0.00 0,1 1232.6,336.6 Q 1500.0,1500.0 2539.3,2107.4 Z" style="stroke-width: 1.0;  stroke: rgb(0,0,0); fill: rgb(209,230,46); opacity: 0.800;"/>
<path d="M 2124.728,2528.975 A 1203.775,1203.775 0.00 0,1 1937.0,2621.7 Q 1500.0,1500.0 370.1,1885.4 A 1193.775,1193.775 0.00 0,1 320.0,1680.7 Q 1500.0,1500.0 2124.7,2529.0 Z" style="stroke-width: 1.0;  stroke: rgb(0,0,0); fill: rgb(46,168,230); opacity: 0.800;"/>
</g>
<g id="cellvalues">
<path d="M 2528.418,874.356 A 1203.775,1203.775 0.00 0,1 2624.7,1070.8 Q 1500.0,1500.0 846.3,501.1 A 1193.775,1193.775 0.00 0,1 1035.0,400.5 Q 1500.0,1500.0 2528.4,874.4 Z" style="stroke-width: 1.0;  stroke: rgb(0,0,0); fill: rgb(230,46,46); opacity: 0.800;"/>
</g>
<g id="cellvalues">
<path d="M 2703.485,1473.567 A 1203.775,1203.775 0.00 0,1 2687.4,1698.0 Q 1500.0,1500.0 461.6,2088.9 A 1193.775,1193.775 0.00 0,1 370.1,1885.4 Q 1500.0,1500.0 2703.5,1473.6 Z" style="stroke-width: 1.0;  stroke: rgb(0,0,0); fill: rgb(128,46,230); opacity: 0.800;"/>
</g>
<g id="cellvalues">
<path d="M 2636.256,1897.487 A 1203.775,1203.775 0.00 0,1 2539.3,2107.4 Q 1500.0,1500.0 1095.4,2623.1 A 1193.775,1193.775 0.00 0,1 885.5,2523.5 Q 1500.0,1500.0 2636.3,1897.5 Z" style="stroke-width: 1.0;  stroke: rgb(0,0,0); fill: rgb(209,230,46); opacity: 0.800;"/>
</g>
<g id="cellvalues">
<path d="M 2253.086,560.886 A 1203.775,1203.775 0.00 0,1 2528.4,874.4 Q 1500.0,1500.0 1503.1,2693.8 A 1193.775,1193.775 0.00 0,1 1095.4,2623.1 Q 1500.0,1500.0 2253.1,560.9 Z" style="stroke-width: 1.0;  stroke: rgb(0,0,0); fill: rgb(230,46,46); opacity: 0.800;"/>
</g>
<g id="cellvalues">
<path d="M 1500.000,296.225 A 1203.775,1203.775 0.00 0,1 2253.1,560.9 Q 1500.0,1500.0 314.5,1359.3 A 1193.775,1193.775 0.00 0,1 663.2,648.6 Q 1500.0,1500.0 1500.0,296.2 Z" style="stroke-width: 1.0;  stroke: rgb(0,0,0); fill: rgb(230,46,46); opacity: 0.800;"/>
</g>
<g id="plot0">
<g id="plot0-axis">
</g>
<text x="2395.3" y="456.4" style="fill: rgb(0,0,0); font-size: 48.0px; text-anchor: start" transform="rotate(309.6,2395.3,456.4)">A</text>
<text x="2559.9" y="2375.9" style="fill: rgb(0,0,0); font-size: 48.0px; text-anchor: start" transform="rotate(38.5,2559.9,2375.9)">D</text>
<text x="474.3" y="2415.7" style="fill: rgb(0,0,0); font-size: 48.0px; text-anchor: end" transform="rotate(319.3,474.3,2415.7)">G</text>
<text x="159.6" y="1806.7" style="fill: rgb(0,0,0); font-size: 48.0px; text-anchor: end" transform="rotate(348.1,159.6,1806.7)">H</text>
<text x="2869.7" y="1379.9" style="fill: rgb(0,0,0); font-size: 48.0px; text-anchor: start" transform="rotate(354.0,2869.7,1379.9)">B</text>
<text x="2855.7" y="1729.6" style="fill: rgb(0,0,0); font-size: 48.0px; text-anchor: start" transform="rotate(8.6,2855.7,1729.6)">C</text>
<text x="1859.1" y="2827.3" style="fill: rgb(0,0,0); font-size: 48.0px; text-anchor: start" transform="rotate(73.8,1859.1,2827.3)">E</text>
<text x="1075.6" y="2807.9" style="fill: rgb(0,0,0); font-size: 48.0px; text-anchor: end" transform="rotate(289.0,1075.6,2807.9)">F</text>
<text x="1072.2" y="193.2" style="fill: rgb(0,0,0); font-size: 48.0px; text-anchor: end" transform="rotate(72.9,1072.2,193.2)">J</text>
<text x="312.6" y="806.7" style="fill: rgb(0,0,0); font-size: 48.0px; text-anchor: end" transform="rotate(31.3,312.6,806.7)">I</text>
</g>
</svg>
