<?xml version="1.0" standalone="no"?>
<!DOCTYPE svg PUBLIC "-//W3C//DTD SVG 1.1//EN" "http://www.w3.org/Graphics/SVG/1.1/DTD/svg11.dtd">
<svg width="3000px" height="3000px" version="1.1" xmlns="http://www.w3.org/2000/svg" xmlns:xlink="http://www.w3.org/1999/xlink">
<g id="ideograms">
<g id="highlight0">
</g>
<g id="highlight1">
<path d="M 1968.531,391.148 A1203.775,1203.775 0.000 0,1 2295.909,596.893 L 2309.133,581.888 A1223.775,1223.775 0.000 0,0 1976.316,372.725 Z " style="stroke-width: 1.0; stroke: rgb(0,0,0); fill: rgb(46,229,138); " />
<path d="M 2487.253,811.229 A1203.775,1203.775 0.000 0,1 2607.660,1028.658 L 2626.063,1020.827 A1223.775,1223.775 0.000 0,0 2503.656,799.785 Z " style="stroke-width: 1.0; stroke: rgb(0,0,0); fill: rgb(184,230,46); " />
<path d="M 1498.142,296.226 A1203.775,1203.775 0.000 0,1 1971.952,392.600 L 1979.793,374.201 A1223.775,1223.775 0.000 0,0 1498.111,276.226 Z " style="stroke-width: 1.0; stroke: rgb(0,0,0); fill: rgb(46,92,230); " />
<path d="M 2293.117,594.440 A1203.775,1203.775 0.000 0,1 2489.375,814.280 L 2505.813,802.887 A1223.775,1223.775 0.000 0,0 2306.295,579.395 Z " style="stroke-width: 1.0; stroke: rgb(0,0,0); fill: rgb(46,207,230); " />
</g>
<path d="M 1498.109,275.001 A1225.000,1225.000 0.000 0,1 2627.190,1020.347 L 2673.198,1000.770 A1275.000,1275.000 0.000 0,0 1498.032,225.002 Z " style="stroke: none;  fill: rgb(230,46,46); " />
<g id="highlight0">
</g>
<g id="highlight1">
</g>
<g id="highlight0">
</g>
<g id="highlight1">
<path d="M 2614.067,1044.009 A1203.775,1203.775 0.000 0,1 2692.257,1333.877 L 2712.066,1331.117 A1223.775,1223.775 0.000 0,0 2632.577,1036.433 Z " style="stroke-width: 1.0; stroke: rgb(0,0,0); fill: rgb(184,230,46); " />
</g>
<path d="M 2633.711,1035.969 A1225.000,1225.000 0.000 0,1 2713.279,1330.948 L 2762.801,1324.048 A1275.000,1275.000 0.000 0,0 2679.985,1017.029 Z " style="stroke: none;  fill: rgb(230,46,230); " />
<g id="highlight0">
</g>
<g id="highlight1">
</g>
<g id="highlight0">
</g>
<g id="highlight1">
<path d="M 2694.439,1350.368 A1203.775,1203.775 0.000 0,1 2693.847,1654.284 L 2713.682,1656.847 A1223.775,1223.775 0.000 0,0 2714.284,1347.882 Z " style="stroke-width: 1.0; stroke: rgb(0,0,0); fill: rgb(46,229,138); " />
<path d="M 2625.271,1927.596 A1203.775,1203.775 0.000 0,1 2513.473,2149.574 L 2530.311,2160.367 A1223.775,1223.775 0.000 0,0 2643.967,1934.700 Z " style="stroke-width: 1.0; stroke: rgb(0,0,0); fill: rgb(115,46,230); " />
<path d="M 2515.473,2146.442 A1203.775,1203.775 0.000 0,1 2377.777,2323.761 L 2392.361,2337.447 A1223.775,1223.775 0.000 0,0 2532.345,2157.183 Z " style="stroke-width: 1.0; stroke: rgb(0,0,0); fill: rgb(184,230,46); " />
<path d="M 2694.318,1650.597 A1203.775,1203.775 0.000 0,1 2623.946,1931.068 L 2642.620,1938.230 A1223.775,1223.775 0.000 0,0 2714.161,1653.099 Z " style="stroke-width: 1.0; stroke: rgb(0,0,0); fill: rgb(46,207,230); " />
</g>
<path d="M 2715.499,1347.730 A1225.000,1225.000 0.000 0,1 2393.254,2338.285 L 2429.714,2372.501 A1275.000,1275.000 0.000 0,0 2765.112,1341.515 Z " style="stroke: none;  fill: rgb(230,161,46); " />
<g id="highlight0">
</g>
<g id="highlight1">
</g>
<g id="highlight0">
</g>
<g id="highlight1">
<path d="M 1906.973,2632.893 A1203.775,1203.775 0.000 0,1 1713.345,2684.719 L 1716.890,2704.402 A1223.775,1223.775 0.000 0,0 1913.734,2651.716 Z " style="stroke-width: 1.0; stroke: rgb(0,0,0); fill: rgb(46,229,138); " />
<path d="M 1717.002,2684.054 A1203.775,1203.775 0.000 0,1 1528.665,2703.434 L 1529.142,2723.428 A1223.775,1223.775 0.000 0,0 1720.607,2703.727 Z " style="stroke-width: 1.0; stroke: rgb(0,0,0); fill: rgb(115,46,230); " />
<path d="M 2366.310,2335.811 A1203.775,1203.775 0.000 0,1 2140.423,2519.280 L 2151.063,2536.215 A1223.775,1223.775 0.000 0,0 2380.704,2349.698 Z " style="stroke-width: 1.0; stroke: rgb(0,0,0); fill: rgb(184,230,46); " />
<path d="M 2143.567,2517.299 A1203.775,1203.775 0.000 0,1 1903.473,2634.144 L 1910.177,2652.988 A1223.775,1223.775 0.000 0,0 2154.259,2534.200 Z " style="stroke-width: 1.0; stroke: rgb(0,0,0); fill: rgb(46,207,230); " />
</g>
<path d="M 2381.585,2350.548 A1225.000,1225.000 0.000 0,1 1529.171,2724.653 L 1530.362,2774.638 A1275.000,1275.000 0.000 0,0 2417.568,2385.265 Z " style="stroke: none;  fill: rgb(69,229,46); " />
<g id="highlight0">
</g>
<g id="highlight1">
</g>
<g id="highlight0">
<path d="M 1511.933,2693.715 A1193.775,1193.775 0.000 0,1 1132.865,2635.918 L 1126.714,2654.949 A1213.775,1213.775 0.000 0,0 1512.133,2713.714 Z " style="stroke-width: 1.0; stroke: rgb(0,0,0); fill: rgb(230,46,46); " />
<path d="M 1136.373,2637.046 A1193.775,1193.775 0.000 0,1 863.190,2509.738 L 852.521,2526.655 A1213.775,1213.775 0.000 0,0 1130.281,2656.096 Z " style="stroke-width: 1.0; stroke: rgb(0,0,0); fill: rgb(230,161,46); " />
<path d="M 866.310,2511.699 A1193.775,1193.775 0.000 0,1 707.220,2392.523 L 693.938,2407.476 A1213.775,1213.775 0.000 0,0 855.693,2528.649 Z " style="stroke-width: 1.0; stroke: rgb(0,0,0); fill: rgb(69,229,46); " />
</g>
<g id="highlight1">
</g>
<path d="M 1512.246,2724.939 A1225.000,1225.000 0.000 0,1 686.483,2415.869 L 653.279,2453.251 A1275.000,1275.000 0.000 0,0 1512.745,2774.936 Z " style="stroke: none;  fill: rgb(46,229,138); " />
<g id="highlight0">
</g>
<g id="highlight1">
</g>
<g id="highlight0">
<path d="M 694.962,2381.483 A1193.775,1193.775 0.000 0,1 531.095,2197.368 L 514.862,2209.051 A1213.775,1213.775 0.000 0,0 681.475,2396.251 Z " style="stroke-width: 1.0; stroke: rgb(0,0,0); fill: rgb(230,161,46); " />
<path d="M 533.252,2200.355 A1193.775,1193.775 0.000 0,1 435.398,2040.113 L 417.562,2049.162 A1213.775,1213.775 0.000 0,0 517.056,2212.089 Z " style="stroke-width: 1.0; stroke: rgb(0,0,0); fill: rgb(69,229,46); " />
</g>
<g id="highlight1">
</g>
<path d="M 673.905,2404.540 A1225.000,1225.000 0.000 0,1 407.552,2054.240 L 362.962,2076.862 A1275.000,1275.000 0.000 0,0 640.187,2441.460 Z " style="stroke: none;  fill: rgb(115,46,230); " />
<g id="highlight0">
</g>
<g id="highlight1">
</g>
<g id="highlight0">
<path d="M 306.782,1463.547 A1193.775,1193.775 0.000 0,1 339.701,1219.278 L 320.262,1214.575 A1213.775,1213.775 0.000 0,0 286.791,1462.937 Z " style="stroke-width: 1.0; stroke: rgb(0,0,0); fill: rgb(230,46,46); " />
<path d="M 428.036,2025.350 A1193.775,1193.775 0.000 0,1 331.374,1743.744 L 311.795,1747.827 A1213.775,1213.775 0.000 0,0 410.077,2034.152 Z " style="stroke-width: 1.0; stroke: rgb(0,0,0); fill: rgb(230,46,230); " />
<path d="M 338.840,1222.861 A1193.775,1193.775 0.000 0,1 410.495,1012.069 L 392.242,1003.894 A1213.775,1213.775 0.000 0,0 319.386,1218.218 Z " style="stroke-width: 1.0; stroke: rgb(0,0,0); fill: rgb(230,161,46); " />
<path d="M 332.132,1747.350 A1193.775,1193.775 0.000 0,1 306.900,1459.864 L 286.911,1459.191 A1213.775,1213.775 0.000 0,0 312.566,1751.494 Z " style="stroke-width: 1.0; stroke: rgb(0,0,0); fill: rgb(69,229,46); " />
</g>
<g id="highlight1">
</g>
<path d="M 399.998,2039.092 A1225.000,1225.000 0.000 0,1 381.997,999.306 L 336.364,978.870 A1275.000,1275.000 0.000 0,0 355.100,2061.095 Z " style="stroke: none;  fill: rgb(184,230,46); " />
<g id="highlight0">
</g>
<g id="highlight1">
</g>
<g id="highlight0">
<path d="M 417.341,997.060 A1193.775,1193.775 0.000 0,1 702.572,611.626 L 689.212,596.743 A1213.775,1213.775 0.000 0,0 399.203,988.634 Z " style="stroke-width: 1.0; stroke: rgb(0,0,0); fill: rgb(230,46,46); " />
</g>
<g id="highlight1">
</g>
<path d="M 389.023,983.905 A1225.000,1225.000 0.000 0,1 681.714,588.390 L 648.315,551.181 A1275.000,1275.000 0.000 0,0 343.677,962.840 Z " style="stroke: none;  fill: rgb(46,92,230); " />
<g id="highlight0">
</g>
<g id="highlight1">
</g>
<g id="highlight0">
<path d="M 714.924,600.692 A1193.775,1193.775 0.000 0,1 956.955,436.891 L 947.857,419.080 A1213.775,1213.775 0.000 0,0 701.771,585.625 Z " style="stroke-width: 1.0; stroke: rgb(0,0,0); fill: rgb(230,46,46); " />
<path d="M 953.676,438.573 A1193.775,1193.775 0.000 0,1 1222.562,338.911 L 1217.914,319.459 A1213.775,1213.775 0.000 0,0 944.523,420.790 Z " style="stroke-width: 1.0; stroke: rgb(0,0,0); fill: rgb(230,161,46); " />
<path d="M 1218.979,339.773 A1193.775,1193.775 0.000 0,1 1481.662,306.366 L 1481.354,286.368 A1213.775,1213.775 0.000 0,0 1214.271,320.335 Z " style="stroke-width: 1.0; stroke: rgb(0,0,0); fill: rgb(69,229,46); " />
</g>
<g id="highlight1">
</g>
<path d="M 694.389,577.169 A1225.000,1225.000 0.000 0,1 1481.182,275.145 L 1480.414,225.150 A1275.000,1275.000 0.000 0,0 661.507,539.503 Z " style="stroke: none;  fill: rgb(46,207,230); " />
<g id="highlight0">
</g>
<g id="highlight1">
</g>
</g>
<g id="cellvalues">
<path d="M 1715.174,2684.388 A 1203.775,1203.775 0.00 0,1 1530.5,2703.4 Q 1500.0,1500.0 532.2,2198.9 A 1193.775,1193.775 0.00 0,1 436.2,2041.8 Q 1500.0,1500.0 1715.2,2684.4 Z" style="stroke-width: 1.0;  stroke: rgb(0,0,0); fill: rgb(69,229,46); opacity: 0.800;"/>
</g>
<g id="cellvalues">
<path d="M 1905.223,2633.520 A 1203.775,1203.775 0.00 0,1 1715.2,2684.4 Q 1500.0,1500.0 864.7,2510.7 A 1193.775,1193.775 0.00 0,1 708.6,2393.7 Q 1500.0,1500.0 1905.2,2633.5 Z" style="stroke-width: 1.0;  stroke: rgb(0,0,0); fill: rgb(69,229,46); opacity: 0.800;"/>
</g>
<g id="cellvalues">
<path d="M 2514.474,2148.009 A 1203.775,1203.775 0.00 0,1 2379.0,2322.4 Q 1500.0,1500.0 339.3,1221.1 A 1193.775,1193.775 0.00 0,1 409.7,1013.8 Q 1500.0,1500.0 2514.5,2148.0 Z" style="stroke-width: 1.0;  stroke: rgb(0,0,0); fill: rgb(230,161,46); opacity: 0.800;"/>
</g>
<g id="cellvalues">
<path d="M 2488.315,812.754 A 1203.775,1203.775 0.00 0,1 2606.9,1026.9 Q 1500.0,1500.0 306.8,1461.7 A 1193.775,1193.775 0.00 0,1 339.3,1221.1 Q 1500.0,1500.0 2488.3,812.8 Z" style="stroke-width: 1.0;  stroke: rgb(0,0,0); fill: rgb(230,46,46); opacity: 0.800;"/>
<path d="M 2624.610,1929.333 A 1203.775,1203.775 0.00 0,1 2514.5,2148.0 Q 1500.0,1500.0 693.6,2380.2 A 1193.775,1193.775 0.00 0,1 532.2,2198.9 Q 1500.0,1500.0 2624.6,1929.3 Z" style="stroke-width: 1.0;  stroke: rgb(0,0,0); fill: rgb(230,161,46); opacity: 0.800;"/>
</g>
<g id="cellvalues">
<path d="M 2141.996,2518.291 A 1203.775,1203.775 0.00 0,1 1905.2,2633.5 Q 1500.0,1500.0 1220.8,339.3 A 1193.775,1193.775 0.00 0,1 1479.8,306.4 Q 1500.0,1500.0 2142.0,2518.3 Z" style="stroke-width: 1.0;  stroke: rgb(0,0,0); fill: rgb(69,229,46); opacity: 0.800;"/>
</g>
<g id="cellvalues">
<path d="M 2365.019,2337.147 A 1203.775,1203.775 0.00 0,1 2142.0,2518.3 Q 1500.0,1500.0 331.8,1745.5 A 1193.775,1193.775 0.00 0,1 306.8,1461.7 Q 1500.0,1500.0 2365.0,2337.1 Z" style="stroke-width: 1.0;  stroke: rgb(0,0,0); fill: rgb(69,229,46); opacity: 0.800;"/>
<path d="M 2694.084,1652.441 A 1203.775,1203.775 0.00 0,1 2624.6,1929.3 Q 1500.0,1500.0 955.3,437.7 A 1193.775,1193.775 0.00 0,1 1220.8,339.3 Q 1500.0,1500.0 2694.1,1652.4 Z" style="stroke-width: 1.0;  stroke: rgb(0,0,0); fill: rgb(230,161,46); opacity: 0.800;"/>
</g>
<g id="cellvalues">
<path d="M 2294.514,595.665 A 1203.775,1203.775 0.00 0,1 2488.3,812.8 Q 1500.0,1500.0 716.3,599.5 A 1193.775,1193.775 0.00 0,1 955.3,437.7 Q 1500.0,1500.0 2294.5,595.7 Z" style="stroke-width: 1.0;  stroke: rgb(0,0,0); fill: rgb(230,46,46); opacity: 0.800;"/>
</g>
<g id="cellvalues">
<path d="M 2614.770,1045.729 A 1203.775,1203.775 0.00 0,1 2692.0,1332.0 Q 1500.0,1500.0 427.2,2023.7 A 1193.775,1193.775 0.00 0,1 331.8,1745.5 Q 1500.0,1500.0 2614.8,1045.7 Z" style="stroke-width: 1.0;  stroke: rgb(0,0,0); fill: rgb(230,46,230); opacity: 0.800;"/>
</g>
<g id="cellvalues">
<path d="M 2694.669,1352.212 A 1203.775,1203.775 0.00 0,1 2694.1,1652.4 Q 1500.0,1500.0 1134.6,2636.5 A 1193.775,1193.775 0.00 0,1 864.7,2510.7 Q 1500.0,1500.0 2694.7,1352.2 Z" style="stroke-width: 1.0;  stroke: rgb(0,0,0); fill: rgb(230,161,46); opacity: 0.800;"/>
</g>
<g id="cellvalues">
<path d="M 1970.242,391.873 A 1203.775,1203.775 0.00 0,1 2294.5,595.7 Q 1500.0,1500.0 1510.1,2693.7 A 1193.775,1193.775 0.00 0,1 1134.6,2636.5 Q 1500.0,1500.0 1970.2,391.9 Z" style="stroke-width: 1.0;  stroke: rgb(0,0,0); fill: rgb(230,46,46); opacity: 0.800;"/>
</g>
<g id="cellvalues">
<path d="M 1500.000,296.225 A 1203.775,1203.775 0.00 0,1 1970.2,391.9 Q 1500.0,1500.0 418.1,995.4 A 1193.775,1193.775 0.00 0,1 701.2,612.9 Q 1500.0,1500.0 1500.0,296.2 Z" style="stroke-width: 1.0;  stroke: rgb(0,0,0); fill: rgb(230,46,46); opacity: 0.800;"/>
</g>
<g id="plot0">
<g id="plot0-axis">
</g>
<text x="2277.8" y="366.2" style="fill: rgb(0,0,0); font-size: 48.0px; text-anchor: start" transform="rotate(303.4,2277.8,366.2)">A</text>
<text x="2799.8" y="1948.6" style="fill: rgb(0,0,0); font-size: 48.0px; text-anchor: start" transform="rotate(18.0,2799.8,1948.6)">D</text>
<text x="421.1" y="2352.4" style="fill: rgb(0,0,0); font-size: 48.0px; text-anchor: end" transform="rotate(322.8,421.1,2352.4)">G</text>
<text x="125.8" y="1548.3" style="fill: rgb(0,0,0); font-size: 48.0px; text-anchor: end" transform="rotate(359.0,125.8,1548.3)">H</text>
<text x="2834.0" y="1166.6" style="fill: rgb(0,0,0); font-size: 48.0px; text-anchor: start" transform="rotate(344.9,2834.0,1166.6)">C</text>
<text x="2030.1" y="2768.7" style="fill: rgb(0,0,0); font-size: 48.0px; text-anchor: start" transform="rotate(66.3,2030.1,2768.7)">E</text>
<text x="1041.0" y="2796.1" style="fill: rgb(0,0,0); font-size: 48.0px; text-anchor: end" transform="rotate(290.5,1041.0,2796.1)">F</text>
<text x="984.0" y="225.5" style="fill: rgb(0,0,0); font-size: 48.0px; text-anchor: end" transform="rotate(69.0,984.0,225.5)">J</text>
<text x="380.3" y="701.9" style="fill: rgb(0,0,0); font-size: 48.0px; text-anchor: end" transform="rotate(36.5,380.3,701.9)">I</text>
</g>
</svg>
