<?xml version="1.0" standalone="no"?>
<!DOCTYPE svg PUBLIC "-//W3C//DTD SVG 1.1//EN" "http://www.w3.org/Graphics/SVG/1.1/DTD/svg11.dtd">
<svg width="3000px" height="3000px" version="1.1" xmlns="http://www.w3.org/2000/svg" xmlns:xlink="http://www.w3.org/1999/xlink">
<g id="ideograms">
<g id="highlight0">
</g>
<g id="highlight1">
<path d="M 1728.600,318.130 A1203.775,1203.775 0.000 0,1 1906.853,367.064 L 1913.613,348.241 A1223.775,1223.775 0.000 0,0 1732.398,298.494 Z " style="stroke-width: 1.0; stroke: rgb(0,0,0); fill: rgb(46,230,189); " />
<path d="M 2136.013,477.962 A1203.775,1203.775 0.000 0,1 2192.554,515.397 L 2204.061,499.038 A1223.775,1223.775 0.000 0,0 2146.580,460.982 Z " style="stroke-width: 1.0; stroke: rgb(0,0,0); fill: rgb(46,168,230); " />
<path d="M 2033.643,420.973 A1203.775,1203.775 0.000 0,1 2137.264,478.742 L 2147.852,461.774 A1223.775,1223.775 0.000 0,0 2042.509,403.046 Z " style="stroke-width: 1.0; stroke: rgb(0,0,0); fill: rgb(46,66,230); " />
<path d="M 1499.263,296.225 A1203.775,1203.775 0.000 0,1 1730.047,318.411 L 1733.869,298.780 A1223.775,1223.775 0.000 0,0 1499.251,276.225 Z " style="stroke-width: 1.0; stroke: rgb(0,0,0); fill: rgb(128,46,230); " />
<path d="M 1905.465,366.566 A1203.775,1203.775 0.000 0,1 2034.964,421.627 L 2043.853,403.711 A1223.775,1223.775 0.000 0,0 1912.202,347.735 Z " style="stroke-width: 1.0; stroke: rgb(0,0,0); fill: rgb(230,46,230); " />
</g>
<path d="M 1499.250,275.000 A1225.000,1225.000 0.000 0,1 2204.765,498.037 L 2233.531,457.140 A1275.000,1275.000 0.000 0,0 1499.219,225.000 Z " style="stroke: none;  fill: rgb(230,46,46); " />
<g id="highlight0">
</g>
<g id="highlight1">
</g>
<g id="highlight0">
</g>
<g id="highlight1">
<path d="M 2615.007,1046.310 A1203.775,1203.775 0.000 0,1 2639.023,1110.513 L 2657.947,1104.042 A1223.775,1223.775 0.000 0,0 2633.532,1038.772 Z " style="stroke-width: 1.0; stroke: rgb(0,0,0); fill: rgb(46,230,189); " />
<path d="M 2206.965,525.692 A1203.775,1203.775 0.000 0,1 2400.470,701.108 L 2415.431,687.835 A1223.775,1223.775 0.000 0,0 2218.710,509.505 Z " style="stroke-width: 1.0; stroke: rgb(0,0,0); fill: rgb(46,168,230); " />
<path d="M 2502.072,832.973 A1203.775,1203.775 0.000 0,1 2567.670,943.983 L 2585.409,934.745 A1223.775,1223.775 0.000 0,0 2518.721,821.891 Z " style="stroke-width: 1.0; stroke: rgb(0,0,0); fill: rgb(46,66,230); " />
<path d="M 2399.491,700.006 A1203.775,1203.775 0.000 0,1 2502.889,834.201 L 2519.551,823.139 A1223.775,1223.775 0.000 0,0 2414.435,686.715 Z " style="stroke-width: 1.0; stroke: rgb(0,0,0); fill: rgb(128,46,230); " />
<path d="M 2566.988,942.676 A1203.775,1203.775 0.000 0,1 2615.561,1047.676 L 2634.096,1040.161 A1223.775,1223.775 0.000 0,0 2584.716,933.416 Z " style="stroke-width: 1.0; stroke: rgb(0,0,0); fill: rgb(230,46,230); " />
</g>
<path d="M 2219.430,508.513 A1225.000,1225.000 0.000 0,1 2659.107,1103.645 L 2706.417,1087.467 A1275.000,1275.000 0.000 0,0 2248.794,468.045 Z " style="stroke: none;  fill: rgb(230,148,46); " />
<g id="highlight0">
</g>
<g id="highlight1">
</g>
<g id="highlight0">
</g>
<g id="highlight1">
<path d="M 2674.643,1763.228 A1203.775,1203.775 0.000 0,1 2650.424,1854.399 L 2669.538,1860.287 A1223.775,1223.775 0.000 0,0 2694.159,1767.601 Z " style="stroke-width: 1.0; stroke: rgb(0,0,0); fill: rgb(46,230,189); " />
<path d="M 2700.136,1406.465 A1203.775,1203.775 0.000 0,1 2703.165,1538.317 L 2723.155,1538.954 A1223.775,1223.775 0.000 0,0 2720.075,1404.911 Z " style="stroke-width: 1.0; stroke: rgb(0,0,0); fill: rgb(46,168,230); " />
<path d="M 2644.630,1127.312 A1203.775,1203.775 0.000 0,1 2700.249,1407.935 L 2720.191,1406.405 A1223.775,1223.775 0.000 0,0 2663.647,1121.120 Z " style="stroke-width: 1.0; stroke: rgb(0,0,0); fill: rgb(46,66,230); " />
<path d="M 2693.454,1657.294 A1203.775,1203.775 0.000 0,1 2674.319,1764.666 L 2693.830,1769.063 A1223.775,1223.775 0.000 0,0 2713.283,1659.907 Z " style="stroke-width: 1.0; stroke: rgb(0,0,0); fill: rgb(128,46,230); " />
<path d="M 2703.211,1536.843 A1203.775,1203.775 0.000 0,1 2693.261,1658.756 L 2713.086,1661.393 A1223.775,1223.775 0.000 0,0 2723.202,1537.456 Z " style="stroke-width: 1.0; stroke: rgb(0,0,0); fill: rgb(230,46,230); " />
</g>
<path d="M 2664.812,1120.741 A1225.000,1225.000 0.000 0,1 2670.708,1860.648 L 2718.492,1875.368 A1275.000,1275.000 0.000 0,0 2712.356,1105.261 Z " style="stroke: none;  fill: rgb(209,230,46); " />
<g id="highlight0">
</g>
<g id="highlight1">
</g>
<g id="highlight0">
</g>
<g id="highlight1">
<path d="M 2645.086,1871.286 A1203.775,1203.775 0.000 0,1 2576.725,2038.272 L 2594.614,2047.215 A1223.775,1223.775 0.000 0,0 2664.111,1877.454 Z " style="stroke-width: 1.0; stroke: rgb(0,0,0); fill: rgb(46,230,189); " />
<path d="M 2490.499,2184.095 A1203.775,1203.775 0.000 0,1 2399.013,2300.531 L 2413.950,2313.831 A1223.775,1223.775 0.000 0,0 2506.955,2195.461 Z " style="stroke-width: 1.0; stroke: rgb(0,0,0); fill: rgb(46,168,230); " />
<path d="M 2399.993,2299.429 A1203.775,1203.775 0.000 0,1 2306.042,2394.075 L 2319.434,2408.930 A1223.775,1223.775 0.000 0,0 2414.946,2312.711 Z " style="stroke-width: 1.0; stroke: rgb(0,0,0); fill: rgb(46,66,230); " />
<path d="M 2307.136,2393.088 A1203.775,1203.775 0.000 0,1 2222.402,2462.917 L 2234.404,2478.916 A1223.775,1223.775 0.000 0,0 2320.546,2407.926 Z " style="stroke-width: 1.0; stroke: rgb(0,0,0); fill: rgb(128,46,230); " />
<path d="M 2577.384,2036.953 A1203.775,1203.775 0.000 0,1 2489.660,2185.308 L 2506.103,2196.694 A1223.775,1223.775 0.000 0,0 2595.284,2045.874 Z " style="stroke-width: 1.0; stroke: rgb(0,0,0); fill: rgb(230,46,230); " />
</g>
<path d="M 2665.276,1877.832 A1225.000,1225.000 0.000 0,1 2235.139,2479.895 L 2265.145,2519.891 A1275.000,1275.000 0.000 0,0 2712.838,1893.254 Z " style="stroke: none;  fill: rgb(107,230,46); " />
<g id="highlight0">
</g>
<g id="highlight1">
</g>
<g id="highlight0">
</g>
<g id="highlight1">
<path d="M 1867.787,2646.214 A1203.775,1203.775 0.000 0,1 1734.405,2680.732 L 1738.300,2700.349 A1223.775,1223.775 0.000 0,0 1873.897,2665.258 Z " style="stroke-width: 1.0; stroke: rgb(0,0,0); fill: rgb(46,230,189); " />
<path d="M 1735.851,2680.444 A1203.775,1203.775 0.000 0,1 1606.768,2699.031 L 1608.541,2718.952 A1223.775,1223.775 0.000 0,0 1739.770,2700.057 Z " style="stroke-width: 1.0; stroke: rgb(0,0,0); fill: rgb(46,168,230); " />
<path d="M 2208.157,2473.441 A1203.775,1203.775 0.000 0,1 2036.301,2577.708 L 2045.212,2595.614 A1223.775,1223.775 0.000 0,0 2219.923,2489.614 Z " style="stroke-width: 1.0; stroke: rgb(0,0,0); fill: rgb(46,66,230); " />
<path d="M 1608.236,2698.899 A1203.775,1203.775 0.000 0,1 1518.447,2703.634 L 1518.753,2723.631 A1223.775,1223.775 0.000 0,0 1610.034,2718.818 Z " style="stroke-width: 1.0; stroke: rgb(0,0,0); fill: rgb(128,46,230); " />
<path d="M 2037.621,2577.051 A1203.775,1203.775 0.000 0,1 1866.383,2646.664 L 1872.470,2665.715 A1223.775,1223.775 0.000 0,0 2046.553,2594.945 Z " style="stroke-width: 1.0; stroke: rgb(0,0,0); fill: rgb(230,46,230); " />
</g>
<path d="M 2220.644,2490.605 A1225.000,1225.000 0.000 0,1 1518.772,2724.856 L 1519.538,2774.850 A1275.000,1275.000 0.000 0,0 2250.058,2531.038 Z " style="stroke: none;  fill: rgb(46,229,87); " />
<g id="highlight0">
</g>
<g id="highlight1">
</g>
<g id="highlight0">
<path d="M 1500.731,2693.775 A1193.775,1193.775 0.000 0,1 1226.126,2661.935 L 1221.538,2681.401 A1213.775,1213.775 0.000 0,0 1500.743,2713.775 Z " style="stroke-width: 1.0; stroke: rgb(0,0,0); fill: rgb(230,46,46); " />
<path d="M 837.929,2493.358 A1193.775,1193.775 0.000 0,1 813.199,2476.424 L 801.693,2492.782 A1213.775,1213.775 0.000 0,0 826.836,2510.000 Z " style="stroke-width: 1.0; stroke: rgb(0,0,0); fill: rgb(230,148,46); " />
<path d="M 896.806,2530.173 A1193.775,1193.775 0.000 0,1 836.712,2492.546 L 825.600,2509.175 A1213.775,1213.775 0.000 0,0 886.700,2547.432 Z " style="stroke-width: 1.0; stroke: rgb(0,0,0); fill: rgb(209,230,46); " />
<path d="M 1227.549,2662.269 A1193.775,1193.775 0.000 0,1 1021.147,2593.526 L 1013.124,2611.846 A1213.775,1213.775 0.000 0,0 1222.985,2681.741 Z " style="stroke-width: 1.0; stroke: rgb(0,0,0); fill: rgb(107,230,46); " />
<path d="M 1022.486,2594.111 A1193.775,1193.775 0.000 0,1 895.545,2529.433 L 885.418,2546.680 A1213.775,1213.775 0.000 0,0 1014.486,2612.442 Z " style="stroke-width: 1.0; stroke: rgb(0,0,0); fill: rgb(46,229,87); " />
</g>
<g id="highlight1">
</g>
<path d="M 1500.750,2725.000 A1225.000,1225.000 0.000 0,1 795.235,2501.963 L 766.469,2542.860 A1275.000,1275.000 0.000 0,0 1500.781,2775.000 Z " style="stroke: none;  fill: rgb(46,230,189); " />
<g id="highlight0">
</g>
<g id="highlight1">
</g>
<g id="highlight0">
<path d="M 467.632,2099.429 A1193.775,1193.775 0.000 0,1 413.339,1994.232 L 395.133,2002.513 A1213.775,1213.775 0.000 0,0 450.336,2109.471 Z " style="stroke-width: 1.0; stroke: rgb(0,0,0); fill: rgb(230,46,46); " />
<path d="M 538.970,2208.180 A1193.775,1193.775 0.000 0,1 466.898,2098.164 L 449.590,2108.185 A1213.775,1213.775 0.000 0,0 522.869,2220.045 Z " style="stroke-width: 1.0; stroke: rgb(0,0,0); fill: rgb(230,148,46); " />
<path d="M 413.945,1995.563 A1193.775,1193.775 0.000 0,1 370.439,1886.252 L 351.515,1892.723 A1213.775,1213.775 0.000 0,0 395.749,2003.865 Z " style="stroke-width: 1.0; stroke: rgb(0,0,0); fill: rgb(209,230,46); " />
<path d="M 798.908,2466.214 A1193.775,1193.775 0.000 0,1 640.259,2328.217 L 625.855,2342.093 A1213.775,1213.775 0.000 0,0 787.162,2482.401 Z " style="stroke-width: 1.0; stroke: rgb(0,0,0); fill: rgb(107,230,46); " />
<path d="M 641.274,2329.269 A1193.775,1193.775 0.000 0,1 538.103,2207.003 L 521.988,2218.848 A1213.775,1213.775 0.000 0,0 626.887,2343.163 Z " style="stroke-width: 1.0; stroke: rgb(0,0,0); fill: rgb(46,229,87); " />
</g>
<g id="highlight1">
</g>
<path d="M 780.570,2491.487 A1225.000,1225.000 0.000 0,1 340.893,1896.355 L 293.583,1912.533 A1275.000,1275.000 0.000 0,0 751.206,2531.955 Z " style="stroke: none;  fill: rgb(46,168,230); " />
<g id="highlight0">
</g>
<g id="highlight1">
</g>
<g id="highlight0">
<path d="M 306.231,1496.354 A1193.775,1193.775 0.000 0,1 317.538,1336.044 L 297.727,1333.297 A1213.775,1213.775 0.000 0,0 286.231,1496.293 Z " style="stroke-width: 1.0; stroke: rgb(0,0,0); fill: rgb(230,46,46); " />
<path d="M 345.305,1197.051 A1193.775,1193.775 0.000 0,1 359.133,1148.545 L 340.019,1142.657 A1213.775,1213.775 0.000 0,0 325.960,1191.975 Z " style="stroke-width: 1.0; stroke: rgb(0,0,0); fill: rgb(230,148,46); " />
<path d="M 364.879,1869.592 A1193.775,1193.775 0.000 0,1 319.967,1680.612 L 300.197,1683.638 A1213.775,1213.775 0.000 0,0 345.861,1875.784 Z " style="stroke-width: 1.0; stroke: rgb(0,0,0); fill: rgb(209,230,46); " />
<path d="M 317.338,1337.492 A1193.775,1193.775 0.000 0,1 345.677,1195.637 L 326.338,1190.538 A1213.775,1213.775 0.000 0,0 297.524,1334.770 Z " style="stroke-width: 1.0; stroke: rgb(0,0,0); fill: rgb(107,230,46); " />
<path d="M 320.189,1682.057 A1193.775,1193.775 0.000 0,1 306.236,1494.892 L 286.236,1494.806 A1213.775,1213.775 0.000 0,0 300.423,1685.107 Z " style="stroke-width: 1.0; stroke: rgb(0,0,0); fill: rgb(46,229,87); " />
</g>
<g id="highlight1">
</g>
<path d="M 335.188,1879.259 A1225.000,1225.000 0.000 0,1 329.292,1139.352 L 281.508,1124.632 A1275.000,1275.000 0.000 0,0 287.644,1894.739 Z " style="stroke: none;  fill: rgb(46,66,230); " />
<g id="highlight0">
</g>
<g id="highlight1">
</g>
<g id="highlight0">
<path d="M 364.427,1131.799 A1193.775,1193.775 0.000 0,1 521.902,815.585 L 505.516,804.119 A1213.775,1213.775 0.000 0,0 345.402,1125.630 Z " style="stroke-width: 1.0; stroke: rgb(0,0,0); fill: rgb(230,46,46); " />
<path d="M 725.944,591.189 A1193.775,1193.775 0.000 0,1 783.599,545.082 L 771.597,529.084 A1213.775,1213.775 0.000 0,0 712.976,575.964 Z " style="stroke-width: 1.0; stroke: rgb(0,0,0); fill: rgb(230,148,46); " />
<path d="M 665.481,646.374 A1193.775,1193.775 0.000 0,1 727.058,590.242 L 714.109,575.000 A1213.775,1213.775 0.000 0,0 651.500,632.073 Z " style="stroke-width: 1.0; stroke: rgb(0,0,0); fill: rgb(209,230,46); " />
<path d="M 521.065,816.784 A1193.775,1193.775 0.000 0,1 603.128,712.143 L 588.102,698.943 A1213.775,1213.775 0.000 0,0 504.664,805.337 Z " style="stroke-width: 1.0; stroke: rgb(0,0,0); fill: rgb(107,230,46); " />
<path d="M 602.163,713.242 A1193.775,1193.775 0.000 0,1 666.527,645.353 L 652.563,631.035 A1213.775,1213.775 0.000 0,0 587.121,700.061 Z " style="stroke-width: 1.0; stroke: rgb(0,0,0); fill: rgb(46,229,87); " />
</g>
<g id="highlight1">
</g>
<path d="M 334.724,1122.168 A1225.000,1225.000 0.000 0,1 764.861,520.105 L 734.855,480.109 A1275.000,1275.000 0.000 0,0 287.162,1106.746 Z " style="stroke: none;  fill: rgb(128,46,230); " />
<g id="highlight0">
</g>
<g id="highlight1">
</g>
<g id="highlight0">
<path d="M 797.725,534.646 A1193.775,1193.775 0.000 0,1 974.709,428.008 L 965.908,410.048 A1213.775,1213.775 0.000 0,0 785.960,518.472 Z " style="stroke-width: 1.0; stroke: rgb(0,0,0); fill: rgb(230,46,46); " />
<path d="M 1432.761,308.120 A1193.775,1193.775 0.000 0,1 1480.975,306.377 L 1480.657,286.379 A1213.775,1213.775 0.000 0,0 1431.635,288.152 Z " style="stroke-width: 1.0; stroke: rgb(0,0,0); fill: rgb(230,148,46); " />
<path d="M 1343.986,316.464 A1193.775,1193.775 0.000 0,1 1434.221,308.039 L 1433.119,288.069 A1213.775,1213.775 0.000 0,0 1341.372,296.635 Z " style="stroke-width: 1.0; stroke: rgb(0,0,0); fill: rgb(209,230,46); " />
<path d="M 973.396,428.652 A1193.775,1193.775 0.000 0,1 1163.219,354.715 L 1157.577,335.528 A1213.775,1213.775 0.000 0,0 964.574,410.703 Z " style="stroke-width: 1.0; stroke: rgb(0,0,0); fill: rgb(107,230,46); " />
<path d="M 1161.816,355.129 A1193.775,1193.775 0.000 0,1 1345.435,316.273 L 1342.846,296.442 A1213.775,1213.775 0.000 0,0 1156.151,335.948 Z " style="stroke-width: 1.0; stroke: rgb(0,0,0); fill: rgb(46,229,87); " />
</g>
<g id="highlight1">
</g>
<path d="M 779.356,509.395 A1225.000,1225.000 0.000 0,1 1481.228,275.144 L 1480.462,225.150 A1275.000,1275.000 0.000 0,0 749.942,468.962 Z " style="stroke: none;  fill: rgb(230,46,230); " />
<g id="highlight0">
</g>
<g id="highlight1">
</g>
</g>
<g id="cellvalues">
<path d="M 2615.284,1046.993 A 1203.775,1203.775 0.00 0,1 2638.8,1109.8 Q 1500.0,1500.0 837.3,2493.0 A 1193.775,1193.775 0.00 0,1 813.8,2476.8 Q 1500.0,1500.0 2615.3,1047.0 Z" style="stroke-width: 1.0;  stroke: rgb(0,0,0); fill: rgb(230,148,46); opacity: 0.800;"/>
</g>
<g id="cellvalues">
<path d="M 2567.329,943.329 A 1203.775,1203.775 0.00 0,1 2615.3,1047.0 Q 1500.0,1500.0 1433.5,308.1 A 1193.775,1193.775 0.00 0,1 1480.2,306.4 Q 1500.0,1500.0 2567.3,943.3 Z" style="stroke-width: 1.0;  stroke: rgb(0,0,0); fill: rgb(230,148,46); opacity: 0.800;"/>
</g>
<g id="cellvalues">
<path d="M 2502.481,833.587 A 1203.775,1203.775 0.00 0,1 2567.3,943.3 Q 1500.0,1500.0 345.5,1196.3 A 1193.775,1193.775 0.00 0,1 358.9,1149.2 Q 1500.0,1500.0 2502.5,833.6 Z" style="stroke-width: 1.0;  stroke: rgb(0,0,0); fill: rgb(230,148,46); opacity: 0.800;"/>
</g>
<g id="cellvalues">
<path d="M 2674.481,1763.947 A 1203.775,1203.775 0.00 0,1 2650.6,1853.7 Q 1500.0,1500.0 896.2,2529.8 A 1193.775,1193.775 0.00 0,1 837.3,2493.0 Q 1500.0,1500.0 2674.5,1763.9 Z" style="stroke-width: 1.0;  stroke: rgb(0,0,0); fill: rgb(209,230,46); opacity: 0.800;"/>
<path d="M 2399.981,700.557 A 1203.775,1203.775 0.00 0,1 2502.5,833.6 Q 1500.0,1500.0 726.5,590.7 A 1193.775,1193.775 0.00 0,1 783.0,545.5 Q 1500.0,1500.0 2400.0,700.6 Z" style="stroke-width: 1.0;  stroke: rgb(0,0,0); fill: rgb(230,148,46); opacity: 0.800;"/>
</g>
<g id="cellvalues">
<path d="M 2693.358,1658.025 A 1203.775,1203.775 0.00 0,1 2674.5,1763.9 Q 1500.0,1500.0 666.0,645.9 A 1193.775,1193.775 0.00 0,1 726.5,590.7 Q 1500.0,1500.0 2693.4,1658.0 Z" style="stroke-width: 1.0;  stroke: rgb(0,0,0); fill: rgb(209,230,46); opacity: 0.800;"/>
</g>
<g id="cellvalues">
<path d="M 2703.188,1537.580 A 1203.775,1203.775 0.00 0,1 2693.4,1658.0 Q 1500.0,1500.0 1344.7,316.4 A 1193.775,1193.775 0.00 0,1 1433.5,308.1 Q 1500.0,1500.0 2703.2,1537.6 Z" style="stroke-width: 1.0;  stroke: rgb(0,0,0); fill: rgb(209,230,46); opacity: 0.800;"/>
<path d="M 1607.502,2698.965 A 1203.775,1203.775 0.00 0,1 1519.2,2703.6 Q 1500.0,1500.0 602.6,712.7 A 1193.775,1193.775 0.00 0,1 666.0,645.9 Q 1500.0,1500.0 1607.5,2699.0 Z" style="stroke-width: 1.0;  stroke: rgb(0,0,0); fill: rgb(46,229,87); opacity: 0.800;"/>
</g>
<g id="cellvalues">
<path d="M 2700.193,1407.200 A 1203.775,1203.775 0.00 0,1 2703.2,1537.6 Q 1500.0,1500.0 413.6,1994.9 A 1193.775,1193.775 0.00 0,1 370.7,1886.9 Q 1500.0,1500.0 2700.2,1407.2 Z" style="stroke-width: 1.0;  stroke: rgb(0,0,0); fill: rgb(209,230,46); opacity: 0.800;"/>
<path d="M 2136.639,478.352 A 1203.775,1203.775 0.00 0,1 2192.0,515.0 Q 1500.0,1500.0 467.3,2098.8 A 1193.775,1193.775 0.00 0,1 413.6,1994.9 Q 1500.0,1500.0 2136.6,478.4 Z" style="stroke-width: 1.0;  stroke: rgb(0,0,0); fill: rgb(230,46,46); opacity: 0.800;"/>
</g>
<g id="cellvalues">
<path d="M 2207.561,526.126 A 1203.775,1203.775 0.00 0,1 2400.0,700.6 Q 1500.0,1500.0 538.5,2207.6 A 1193.775,1193.775 0.00 0,1 467.3,2098.8 Q 1500.0,1500.0 2207.6,526.1 Z" style="stroke-width: 1.0;  stroke: rgb(0,0,0); fill: rgb(230,148,46); opacity: 0.800;"/>
</g>
<g id="cellvalues">
<path d="M 2306.589,2393.582 A 1203.775,1203.775 0.00 0,1 2223.0,2462.5 Q 1500.0,1500.0 521.5,816.2 A 1193.775,1193.775 0.00 0,1 602.6,712.7 Q 1500.0,1500.0 2306.6,2393.6 Z" style="stroke-width: 1.0;  stroke: rgb(0,0,0); fill: rgb(107,230,46); opacity: 0.800;"/>
</g>
<g id="cellvalues">
<path d="M 1735.128,2680.588 A 1203.775,1203.775 0.00 0,1 1607.5,2699.0 Q 1500.0,1500.0 640.8,2328.7 A 1193.775,1193.775 0.00 0,1 538.5,2207.6 Q 1500.0,1500.0 1735.1,2680.6 Z" style="stroke-width: 1.0;  stroke: rgb(0,0,0); fill: rgb(46,229,87); opacity: 0.800;"/>
</g>
<g id="cellvalues">
<path d="M 1867.085,2646.439 A 1203.775,1203.775 0.00 0,1 1735.1,2680.6 Q 1500.0,1500.0 1021.8,2593.8 A 1193.775,1193.775 0.00 0,1 896.2,2529.8 Q 1500.0,1500.0 1867.1,2646.4 Z" style="stroke-width: 1.0;  stroke: rgb(0,0,0); fill: rgb(46,229,87); opacity: 0.800;"/>
</g>
<g id="cellvalues">
<path d="M 2399.503,2299.980 A 1203.775,1203.775 0.00 0,1 2306.6,2393.6 Q 1500.0,1500.0 317.4,1336.8 A 1193.775,1193.775 0.00 0,1 345.5,1196.3 Q 1500.0,1500.0 2399.5,2300.0 Z" style="stroke-width: 1.0;  stroke: rgb(0,0,0); fill: rgb(107,230,46); opacity: 0.800;"/>
</g>
<g id="cellvalues">
<path d="M 2490.080,2184.702 A 1203.775,1203.775 0.00 0,1 2399.5,2300.0 Q 1500.0,1500.0 798.3,2465.8 A 1193.775,1193.775 0.00 0,1 640.8,2328.7 Q 1500.0,1500.0 2490.1,2184.7 Z" style="stroke-width: 1.0;  stroke: rgb(0,0,0); fill: rgb(107,230,46); opacity: 0.800;"/>
<path d="M 2034.304,421.300 A 1203.775,1203.775 0.00 0,1 2136.6,478.4 Q 1500.0,1500.0 306.2,1495.6 A 1193.775,1193.775 0.00 0,1 317.4,1336.8 Q 1500.0,1500.0 2034.3,421.3 Z" style="stroke-width: 1.0;  stroke: rgb(0,0,0); fill: rgb(230,46,46); opacity: 0.800;"/>
</g>
<g id="cellvalues">
<path d="M 2036.961,2577.380 A 1203.775,1203.775 0.00 0,1 1867.1,2646.4 Q 1500.0,1500.0 1162.5,354.9 A 1193.775,1193.775 0.00 0,1 1344.7,316.4 Q 1500.0,1500.0 2037.0,2577.4 Z" style="stroke-width: 1.0;  stroke: rgb(0,0,0); fill: rgb(46,229,87); opacity: 0.800;"/>
</g>
<g id="cellvalues">
<path d="M 2577.055,2037.613 A 1203.775,1203.775 0.00 0,1 2490.1,2184.7 Q 1500.0,1500.0 974.1,428.3 A 1193.775,1193.775 0.00 0,1 1162.5,354.9 Q 1500.0,1500.0 2577.1,2037.6 Z" style="stroke-width: 1.0;  stroke: rgb(0,0,0); fill: rgb(107,230,46); opacity: 0.800;"/>
<path d="M 2207.561,2473.874 A 1203.775,1203.775 0.00 0,1 2037.0,2577.4 Q 1500.0,1500.0 320.1,1681.3 A 1193.775,1193.775 0.00 0,1 306.2,1495.6 Q 1500.0,1500.0 2207.6,2473.9 Z" style="stroke-width: 1.0;  stroke: rgb(0,0,0); fill: rgb(46,229,87); opacity: 0.800;"/>
</g>
<g id="cellvalues">
<path d="M 1906.159,366.815 A 1203.775,1203.775 0.00 0,1 2034.3,421.3 Q 1500.0,1500.0 798.3,534.2 A 1193.775,1193.775 0.00 0,1 974.1,428.3 Q 1500.0,1500.0 1906.2,366.8 Z" style="stroke-width: 1.0;  stroke: rgb(0,0,0); fill: rgb(230,46,46); opacity: 0.800;"/>
</g>
<g id="cellvalues">
<path d="M 2644.858,1128.013 A 1203.775,1203.775 0.00 0,1 2700.2,1407.2 Q 1500.0,1500.0 364.7,1868.9 A 1193.775,1193.775 0.00 0,1 320.1,1681.3 Q 1500.0,1500.0 2644.9,1128.0 Z" style="stroke-width: 1.0;  stroke: rgb(0,0,0); fill: rgb(209,230,46); opacity: 0.800;"/>
</g>
<g id="cellvalues">
<path d="M 2644.858,1871.987 A 1203.775,1203.775 0.00 0,1 2577.1,2037.6 Q 1500.0,1500.0 1226.8,2662.1 A 1193.775,1193.775 0.00 0,1 1021.8,2593.8 Q 1500.0,1500.0 2644.9,1872.0 Z" style="stroke-width: 1.0;  stroke: rgb(0,0,0); fill: rgb(107,230,46); opacity: 0.800;"/>
</g>
<g id="cellvalues">
<path d="M 1729.324,318.270 A 1203.775,1203.775 0.00 0,1 1906.2,366.8 Q 1500.0,1500.0 1500.0,2693.8 A 1193.775,1193.775 0.00 0,1 1226.8,2662.1 Q 1500.0,1500.0 1729.3,318.3 Z" style="stroke-width: 1.0;  stroke: rgb(0,0,0); fill: rgb(230,46,46); opacity: 0.800;"/>
</g>
<g id="cellvalues">
<path d="M 1500.000,296.225 A 1203.775,1203.775 0.00 0,1 1729.3,318.3 Q 1500.0,1500.0 364.7,1131.1 A 1193.775,1193.775 0.00 0,1 521.5,816.2 Q 1500.0,1500.0 1500.0,296.2 Z" style="stroke-width: 1.0;  stroke: rgb(0,0,0); fill: rgb(230,46,46); opacity: 0.800;"/>
</g>
<g id="plot0">
<g id="plot0-axis">
</g>
<text x="1937.8" y="196.5" style="fill: rgb(0,0,0); font-size: 48.0px; text-anchor: start" transform="rotate(287.5,1937.8,196.5)">A</text>
<text x="2604.4" y="2319.1" style="fill: rgb(0,0,0); font-size: 48.0px; text-anchor: start" transform="rotate(35.5,2604.4,2319.1)">D</text>
<text x="409.4" y="2337.4" style="fill: rgb(0,0,0); font-size: 48.0px; text-anchor: end" transform="rotate(323.5,409.4,2337.4)">G</text>
<text x="125.5" y="1535.5" style="fill: rgb(0,0,0); font-size: 48.0px; text-anchor: end" transform="rotate(359.5,125.5,1535.5)">H</text>
<text x="2620.3" y="702.8" style="fill: rgb(0,0,0); font-size: 48.0px; text-anchor: start" transform="rotate(323.5,2620.3,702.8)">B</text>
<text x="2874.9" y="1514.5" style="fill: rgb(0,0,0); font-size: 48.0px; text-anchor: start" transform="rotate(359.5,2874.9,1514.5)">C</text>
<text x="1912.0" y="2811.8" style="fill: rgb(0,0,0); font-size: 48.0px; text-anchor: start" transform="rotate(71.5,1912.0,2811.8)">E</text>
<text x="1109.0" y="2818.2" style="fill: rgb(0,0,0); font-size: 48.0px; text-anchor: end" transform="rotate(287.5,1109.0,2818.2)">F</text>
<text x="1041.1" y="203.9" style="fill: rgb(0,0,0); font-size: 48.0px; text-anchor: end" transform="rotate(71.5,1041.1,203.9)">J</text>
<text x="367.1" y="720.7" style="fill: rgb(0,0,0); font-size: 48.0px; text-anchor: end" transform="rotate(35.5,367.1,720.7)">I</text>
</g>
</svg>
