<?xml version="1.0" standalone="no"?>
<!DOCTYPE svg PUBLIC "-//W3C//DTD SVG 1.1//EN" "http://www.w3.org/Graphics/SVG/1.1/DTD/svg11.dtd">
<svg width="3000px" height="3000px" version="1.1" xmlns="http://www.w3.org/2000/svg" xmlns:xlink="http://www.w3.org/1999/xlink">
<g id="ideograms">
<g id="highlight0">
</g>
<g id="highlight1">
<path d="M 1846.973,347.314 A1203.775,1203.775 0.000 0,1 2106.809,460.357 L 2116.891,443.084 A1223.775,1223.775 0.000 0,0 1852.738,328.163 Z " style="stroke-width: 1.0; stroke: rgb(0,0,0); fill: rgb(46,230,189); " />
<path d="M 2406.214,707.630 A1203.775,1203.775 0.000 0,1 2470.780,788.199 L 2486.909,776.373 A1223.775,1223.775 0.000 0,0 2421.270,694.465 Z " style="stroke-width: 1.0; stroke: rgb(0,0,0); fill: rgb(46,66,230); " />
<path d="M 2278.533,581.871 A1203.775,1203.775 0.000 0,1 2408.001,709.678 L 2423.087,696.547 A1223.775,1223.775 0.000 0,0 2291.467,566.617 Z " style="stroke-width: 1.0; stroke: rgb(0,0,0); fill: rgb(209,230,46); " />
<path d="M 1498.641,296.226 A1203.775,1203.775 0.000 0,1 1849.575,348.101 L 1855.383,328.963 A1223.775,1223.775 0.000 0,0 1498.618,276.226 Z " style="stroke-width: 1.0; stroke: rgb(0,0,0); fill: rgb(46,168,230); " />
<path d="M 2104.460,458.990 A1203.775,1203.775 0.000 0,1 2280.604,583.631 L 2293.573,568.406 A1223.775,1223.775 0.000 0,0 2114.503,441.694 Z " style="stroke-width: 1.0; stroke: rgb(0,0,0); fill: rgb(46,229,87); " />
</g>
<path d="M 1498.617,275.001 A1225.000,1225.000 0.000 0,1 2487.897,775.649 L 2528.219,746.083 A1275.000,1275.000 0.000 0,0 1498.561,225.001 Z " style="stroke: none;  fill: rgb(230,46,46); " />
<g id="highlight0">
</g>
<g id="highlight1">
</g>
<g id="highlight0">
</g>
<g id="highlight1">
<path d="M 2617.776,1053.177 A1203.775,1203.775 0.000 0,1 2629.000,1082.347 L 2647.757,1075.408 A1223.775,1223.775 0.000 0,0 2636.347,1045.753 Z " style="stroke-width: 1.0; stroke: rgb(0,0,0); fill: rgb(46,230,189); " />
<path d="M 2480.786,802.051 A1203.775,1203.775 0.000 0,1 2542.466,898.054 L 2559.786,888.053 A1223.775,1223.775 0.000 0,0 2497.082,790.455 Z " style="stroke-width: 1.0; stroke: rgb(0,0,0); fill: rgb(46,66,230); " />
<path d="M 2575.376,959.037 A1203.775,1203.775 0.000 0,1 2599.807,1010.613 L 2618.079,1002.483 A1223.775,1223.775 0.000 0,0 2593.243,950.049 Z " style="stroke-width: 1.0; stroke: rgb(0,0,0); fill: rgb(209,230,46); " />
<path d="M 2541.104,895.702 A1203.775,1203.775 0.000 0,1 2576.594,961.466 L 2594.481,952.519 A1223.775,1223.775 0.000 0,0 2558.401,885.661 Z " style="stroke-width: 1.0; stroke: rgb(0,0,0); fill: rgb(46,168,230); " />
<path d="M 2598.699,1008.131 A1203.775,1203.775 0.000 0,1 2618.782,1055.702 L 2637.370,1048.320 A1223.775,1223.775 0.000 0,0 2616.953,999.959 Z " style="stroke-width: 1.0; stroke: rgb(0,0,0); fill: rgb(46,229,87); " />
</g>
<path d="M 2498.080,789.745 A1225.000,1225.000 0.000 0,1 2648.906,1074.983 L 2695.800,1057.635 A1275.000,1275.000 0.000 0,0 2538.818,760.755 Z " style="stroke: none;  fill: rgb(230,46,230); " />
<g id="highlight0">
</g>
<g id="highlight1">
</g>
<g id="highlight0">
</g>
<g id="highlight1">
<path d="M 2701.041,1581.084 A1203.775,1203.775 0.000 0,1 2693.870,1654.105 L 2713.706,1656.665 A1223.775,1223.775 0.000 0,0 2720.996,1582.432 Z " style="stroke-width: 1.0; stroke: rgb(0,0,0); fill: rgb(46,230,189); " />
<path d="M 2688.495,1308.811 A1203.775,1203.775 0.000 0,1 2700.406,1410.003 L 2720.350,1408.508 A1223.775,1223.775 0.000 0,0 2708.241,1305.635 Z " style="stroke-width: 1.0; stroke: rgb(0,0,0); fill: rgb(46,66,230); " />
<path d="M 2634.815,1098.416 A1203.775,1203.775 0.000 0,1 2688.924,1311.495 L 2708.677,1308.363 A1223.775,1223.775 0.000 0,0 2653.669,1091.744 Z " style="stroke-width: 1.0; stroke: rgb(0,0,0); fill: rgb(209,230,46); " />
<path d="M 2703.775,1499.609 A1203.775,1203.775 0.000 0,1 2700.855,1583.796 L 2720.806,1585.188 A1223.775,1223.775 0.000 0,0 2723.775,1499.603 Z " style="stroke-width: 1.0; stroke: rgb(0,0,0); fill: rgb(46,168,230); " />
<path d="M 2700.200,1407.293 A1203.775,1203.775 0.000 0,1 2703.773,1502.327 L 2723.773,1502.366 A1223.775,1223.775 0.000 0,0 2720.140,1405.753 Z " style="stroke-width: 1.0; stroke: rgb(0,0,0); fill: rgb(46,229,87); " />
</g>
<path d="M 2654.824,1091.335 A1225.000,1225.000 0.000 0,1 2714.921,1656.822 L 2764.509,1663.223 A1275.000,1275.000 0.000 0,0 2701.959,1074.655 Z " style="stroke: none;  fill: rgb(128,46,230); " />
<g id="highlight0">
</g>
<g id="highlight1">
</g>
<g id="highlight0">
</g>
<g id="highlight1">
<path d="M 2691.562,1671.037 A1203.775,1203.775 0.000 0,1 2639.714,1887.462 L 2658.650,1893.899 A1223.775,1223.775 0.000 0,0 2711.359,1673.879 Z " style="stroke-width: 1.0; stroke: rgb(0,0,0); fill: rgb(46,230,189); " />
<path d="M 2556.816,2076.380 A1203.775,1203.775 0.000 0,1 2457.889,2229.056 L 2473.804,2241.169 A1223.775,1223.775 0.000 0,0 2574.375,2085.956 Z " style="stroke-width: 1.0; stroke: rgb(0,0,0); fill: rgb(46,66,230); " />
<path d="M 2459.533,2226.892 A1203.775,1203.775 0.000 0,1 2351.612,2350.783 L 2365.761,2364.918 A1223.775,1223.775 0.000 0,0 2475.475,2238.969 Z " style="stroke-width: 1.0; stroke: rgb(0,0,0); fill: rgb(209,230,46); " />
<path d="M 2353.530,2348.858 A1203.775,1203.775 0.000 0,1 2253.533,2438.755 L 2266.053,2454.352 A1223.775,1223.775 0.000 0,0 2367.711,2362.961 Z " style="stroke-width: 1.0; stroke: rgb(0,0,0); fill: rgb(46,168,230); " />
<path d="M 2640.586,1884.887 A1203.775,1203.775 0.000 0,1 2555.512,2078.765 L 2573.049,2088.380 A1223.775,1223.775 0.000 0,0 2659.536,1891.282 Z " style="stroke-width: 1.0; stroke: rgb(0,0,0); fill: rgb(46,229,87); " />
</g>
<path d="M 2712.572,1674.053 A1225.000,1225.000 0.000 0,1 2266.820,2455.308 L 2298.118,2494.300 A1275.000,1275.000 0.000 0,0 2762.065,1681.157 Z " style="stroke: none;  fill: rgb(230,148,46); " />
<g id="highlight0">
</g>
<g id="highlight1">
</g>
<g id="highlight0">
</g>
<g id="highlight1">
<path d="M 1886.545,2640.025 A1203.775,1203.775 0.000 0,1 1745.026,2678.574 L 1749.097,2698.155 A1223.775,1223.775 0.000 0,0 1892.967,2658.966 Z " style="stroke-width: 1.0; stroke: rgb(0,0,0); fill: rgb(46,230,189); " />
<path d="M 1747.686,2678.018 A1203.775,1203.775 0.000 0,1 1610.699,2698.674 L 1612.538,2718.589 A1223.775,1223.775 0.000 0,0 1751.801,2697.590 Z " style="stroke-width: 1.0; stroke: rgb(0,0,0); fill: rgb(46,66,230); " />
<path d="M 2240.131,2449.358 A1203.775,1203.775 0.000 0,1 2061.155,2564.979 L 2070.478,2582.673 A1223.775,1223.775 0.000 0,0 2252.428,2465.131 Z " style="stroke-width: 1.0; stroke: rgb(0,0,0); fill: rgb(209,230,46); " />
<path d="M 1613.405,2698.421 A1203.775,1203.775 0.000 0,1 1518.447,2703.634 L 1518.753,2723.631 A1223.775,1223.775 0.000 0,0 1615.289,2718.332 Z " style="stroke-width: 1.0; stroke: rgb(0,0,0); fill: rgb(46,168,230); " />
<path d="M 2063.558,2563.709 A1203.775,1203.775 0.000 0,1 1883.970,2640.895 L 1890.349,2659.850 A1223.775,1223.775 0.000 0,0 2072.921,2581.382 Z " style="stroke-width: 1.0; stroke: rgb(0,0,0); fill: rgb(46,229,87); " />
</g>
<path d="M 2253.181,2466.097 A1225.000,1225.000 0.000 0,1 1518.772,2724.856 L 1519.538,2774.850 A1275.000,1275.000 0.000 0,0 2283.924,2505.529 Z " style="stroke: none;  fill: rgb(107,230,46); " />
<g id="highlight0">
</g>
<g id="highlight1">
</g>
<g id="highlight0">
<path d="M 1501.348,2693.774 A1193.775,1193.775 0.000 0,1 1222.257,2661.016 L 1217.603,2680.467 A1213.775,1213.775 0.000 0,0 1501.370,2713.774 Z " style="stroke-width: 1.0; stroke: rgb(0,0,0); fill: rgb(230,46,46); " />
<path d="M 832.063,2489.424 A1193.775,1193.775 0.000 0,1 806.601,2471.749 L 794.984,2488.030 A1213.775,1213.775 0.000 0,0 820.873,2506.000 Z " style="stroke-width: 1.0; stroke: rgb(0,0,0); fill: rgb(230,46,230); " />
<path d="M 891.262,2526.907 A1193.775,1193.775 0.000 0,1 829.831,2487.913 L 818.603,2504.464 A1213.775,1213.775 0.000 0,0 881.064,2544.111 Z " style="stroke-width: 1.0; stroke: rgb(0,0,0); fill: rgb(128,46,230); " />
<path d="M 1224.879,2661.640 A1193.775,1193.775 0.000 0,1 1015.741,2591.143 L 1007.628,2609.423 A1213.775,1213.775 0.000 0,0 1220.269,2681.101 Z " style="stroke-width: 1.0; stroke: rgb(0,0,0); fill: rgb(230,148,46); " />
<path d="M 1018.206,2592.233 A1193.775,1193.775 0.000 0,1 888.945,2525.530 L 878.708,2542.711 A1213.775,1213.775 0.000 0,0 1010.134,2610.532 Z " style="stroke-width: 1.0; stroke: rgb(0,0,0); fill: rgb(107,230,46); " />
</g>
<g id="highlight1">
</g>
<path d="M 1501.383,2724.999 A1225.000,1225.000 0.000 0,1 788.464,2497.167 L 759.422,2537.868 A1275.000,1275.000 0.000 0,0 1501.439,2774.999 Z " style="stroke: none;  fill: rgb(46,230,189); " />
<g id="highlight0">
</g>
<g id="highlight1">
</g>
<g id="highlight0">
<path d="M 502.997,2156.570 A1193.775,1193.775 0.000 0,1 450.402,2068.721 L 432.818,2078.249 A1213.775,1213.775 0.000 0,0 486.294,2167.570 Z " style="stroke-width: 1.0; stroke: rgb(0,0,0); fill: rgb(230,46,46); " />
<path d="M 567.958,2245.920 A1193.775,1193.775 0.000 0,1 501.517,2154.317 L 484.789,2165.280 A1213.775,1213.775 0.000 0,0 552.343,2258.417 Z " style="stroke-width: 1.0; stroke: rgb(0,0,0); fill: rgb(230,46,230); " />
<path d="M 451.689,2071.089 A1193.775,1193.775 0.000 0,1 407.149,1980.391 L 388.840,1988.439 A1213.775,1213.775 0.000 0,0 434.126,2080.657 Z " style="stroke-width: 1.0; stroke: rgb(0,0,0); fill: rgb(128,46,230); " />
<path d="M 792.876,2461.808 A1193.775,1193.775 0.000 0,1 656.011,2344.263 L 641.871,2358.408 A1213.775,1213.775 0.000 0,0 781.030,2477.922 Z " style="stroke-width: 1.0; stroke: rgb(0,0,0); fill: rgb(230,148,46); " />
<path d="M 657.919,2346.167 A1193.775,1193.775 0.000 0,1 566.276,2243.813 L 550.633,2256.275 A1213.775,1213.775 0.000 0,0 643.811,2360.343 Z " style="stroke-width: 1.0; stroke: rgb(0,0,0); fill: rgb(107,230,46); " />
</g>
<g id="highlight1">
</g>
<path d="M 774.381,2486.966 A1225.000,1225.000 0.000 0,1 378.564,1992.957 L 332.791,2013.077 A1275.000,1275.000 0.000 0,0 744.763,2527.250 Z " style="stroke: none;  fill: rgb(46,66,230); " />
<g id="highlight0">
</g>
<g id="highlight1">
</g>
<g id="highlight0">
<path d="M 307.399,1552.929 A1193.775,1193.775 0.000 0,1 313.042,1372.603 L 293.156,1370.469 A1213.775,1213.775 0.000 0,0 287.419,1553.815 Z " style="stroke-width: 1.0; stroke: rgb(0,0,0); fill: rgb(230,46,46); " />
<path d="M 340.159,1217.393 A1193.775,1193.775 0.000 0,1 354.856,1162.739 L 335.671,1157.089 A1213.775,1213.775 0.000 0,0 320.727,1212.659 Z " style="stroke-width: 1.0; stroke: rgb(0,0,0); fill: rgb(230,46,230); " />
<path d="M 400.440,1964.829 A1193.775,1193.775 0.000 0,1 334.241,1757.107 L 314.710,1761.414 A1213.775,1213.775 0.000 0,0 382.018,1972.617 Z " style="stroke-width: 1.0; stroke: rgb(0,0,0); fill: rgb(128,46,230); " />
<path d="M 312.758,1375.284 A1193.775,1193.775 0.000 0,1 340.800,1214.775 L 321.379,1209.997 A1213.775,1213.775 0.000 0,0 292.867,1373.194 Z " style="stroke-width: 1.0; stroke: rgb(0,0,0); fill: rgb(230,148,46); " />
<path d="M 334.824,1759.738 A1193.775,1193.775 0.000 0,1 307.282,1550.236 L 287.300,1551.077 A1213.775,1213.775 0.000 0,0 315.303,1764.090 Z " style="stroke-width: 1.0; stroke: rgb(0,0,0); fill: rgb(107,230,46); " />
</g>
<g id="highlight1">
</g>
<path d="M 371.679,1976.988 A1225.000,1225.000 0.000 0,1 324.904,1153.917 L 276.940,1139.791 A1275.000,1275.000 0.000 0,0 325.625,1996.456 Z " style="stroke: none;  fill: rgb(209,230,46); " />
<g id="highlight0">
</g>
<g id="highlight1">
</g>
<g id="highlight0">
<path d="M 359.759,1146.517 A1193.775,1193.775 0.000 0,1 512.305,829.510 L 495.757,818.277 A1213.775,1213.775 0.000 0,0 340.656,1140.595 Z " style="stroke-width: 1.0; stroke: rgb(0,0,0); fill: rgb(230,46,46); " />
<path d="M 710.453,604.615 A1193.775,1193.775 0.000 0,1 767.532,557.349 L 755.261,541.557 A1213.775,1213.775 0.000 0,0 697.225,589.614 Z " style="stroke-width: 1.0; stroke: rgb(0,0,0); fill: rgb(230,46,230); " />
<path d="M 651.661,660.107 A1193.775,1193.775 0.000 0,1 712.476,602.835 L 699.282,587.804 A1213.775,1213.775 0.000 0,0 637.449,646.036 Z " style="stroke-width: 1.0; stroke: rgb(0,0,0); fill: rgb(128,46,230); " />
<path d="M 510.793,831.742 A1193.775,1193.775 0.000 0,1 591.495,725.586 L 576.274,712.612 A1213.775,1213.775 0.000 0,0 494.220,820.546 Z " style="stroke-width: 1.0; stroke: rgb(0,0,0); fill: rgb(230,148,46); " />
<path d="M 589.748,727.639 A1193.775,1193.775 0.000 0,1 653.560,658.194 L 639.379,644.090 A1213.775,1213.775 0.000 0,0 574.499,714.700 Z " style="stroke-width: 1.0; stroke: rgb(0,0,0); fill: rgb(107,230,46); " />
</g>
<g id="highlight1">
</g>
<path d="M 329.935,1137.271 A1225.000,1225.000 0.000 0,1 748.374,532.693 L 717.695,493.211 A1275.000,1275.000 0.000 0,0 282.177,1122.466 Z " style="stroke: none;  fill: rgb(46,168,230); " />
<g id="highlight0">
</g>
<g id="highlight1">
</g>
<g id="highlight0">
<path d="M 780.988,547.047 A1193.775,1193.775 0.000 0,1 962.673,433.989 L 953.671,416.130 A1213.775,1213.775 0.000 0,0 768.942,531.081 Z " style="stroke-width: 1.0; stroke: rgb(0,0,0); fill: rgb(230,46,46); " />
<path d="M 1430.534,308.248 A1193.775,1193.775 0.000 0,1 1481.706,306.365 L 1481.400,286.368 A1213.775,1213.775 0.000 0,0 1429.370,288.282 Z " style="stroke-width: 1.0; stroke: rgb(0,0,0); fill: rgb(230,46,230); " />
<path d="M 1339.343,317.085 A1193.775,1193.775 0.000 0,1 1433.225,308.094 L 1432.106,288.125 A1213.775,1213.775 0.000 0,0 1336.652,297.267 Z " style="stroke-width: 1.0; stroke: rgb(0,0,0); fill: rgb(128,46,230); " />
<path d="M 960.268,435.205 A1193.775,1193.775 0.000 0,1 1155.167,357.114 L 1149.390,337.966 A1213.775,1213.775 0.000 0,0 951.225,417.366 Z " style="stroke-width: 1.0; stroke: rgb(0,0,0); fill: rgb(230,148,46); " />
<path d="M 1152.588,357.895 A1193.775,1193.775 0.000 0,1 1342.014,316.725 L 1339.367,296.901 A1213.775,1213.775 0.000 0,0 1146.768,338.761 Z " style="stroke-width: 1.0; stroke: rgb(0,0,0); fill: rgb(107,230,46); " />
</g>
<g id="highlight1">
</g>
<path d="M 762.181,522.121 A1225.000,1225.000 0.000 0,1 1481.228,275.144 L 1480.462,225.150 A1275.000,1275.000 0.000 0,0 732.066,482.207 Z " style="stroke: none;  fill: rgb(46,229,87); " />
<g id="highlight0">
</g>
<g id="highlight1">
</g>
</g>
<g id="cellvalues">
<path d="M 2618.280,1054.439 A 1203.775,1203.775 0.00 0,1 2628.5,1081.1 Q 1500.0,1500.0 830.9,2488.7 A 1193.775,1193.775 0.00 0,1 807.7,2472.5 Q 1500.0,1500.0 2618.3,1054.4 Z" style="stroke-width: 2.0;  stroke: rgb(0,0,0); fill: rgb(247,42,66); opacity: 0.800;"/>
</g>
<g id="cellvalues">
<path d="M 2599.254,1009.372 A 1203.775,1203.775 0.00 0,1 2618.3,1054.4 Q 1500.0,1500.0 1431.9,308.2 A 1193.775,1193.775 0.00 0,1 1480.4,306.4 Q 1500.0,1500.0 2599.3,1009.4 Z" style="stroke-width: 2.0;  stroke: rgb(0,0,0); fill: rgb(247,42,66); opacity: 0.800;"/>
</g>
<g id="cellvalues">
<path d="M 2575.986,960.251 A 1203.775,1203.775 0.00 0,1 2599.3,1009.4 Q 1500.0,1500.0 340.5,1216.1 A 1193.775,1193.775 0.00 0,1 354.5,1164.0 Q 1500.0,1500.0 2576.0,960.3 Z" style="stroke-width: 2.0;  stroke: rgb(0,0,0); fill: rgb(247,42,66); opacity: 0.800;"/>
</g>
<g id="cellvalues">
<path d="M 2700.949,1582.440 A 1203.775,1203.775 0.00 0,1 2694.0,1652.8 Q 1500.0,1500.0 890.1,2526.2 A 1193.775,1193.775 0.00 0,1 830.9,2488.7 Q 1500.0,1500.0 2700.9,1582.4 Z" style="stroke-width: 2.0;  stroke: rgb(0,0,0); fill: rgb(247,42,66); opacity: 0.800;"/>
<path d="M 2541.786,896.877 A 1203.775,1203.775 0.00 0,1 2576.0,960.3 Q 1500.0,1500.0 711.5,603.7 A 1193.775,1193.775 0.00 0,1 766.5,558.2 Q 1500.0,1500.0 2541.8,896.9 Z" style="stroke-width: 2.0;  stroke: rgb(0,0,0); fill: rgb(247,42,66); opacity: 0.800;"/>
</g>
<g id="cellvalues">
<path d="M 2703.775,1500.968 A 1203.775,1203.775 0.00 0,1 2700.9,1582.4 Q 1500.0,1500.0 652.6,659.1 A 1193.775,1193.775 0.00 0,1 711.5,603.7 Q 1500.0,1500.0 2703.8,1501.0 Z" style="stroke-width: 2.0;  stroke: rgb(0,0,0); fill: rgb(247,42,66); opacity: 0.800;"/>
</g>
<g id="cellvalues">
<path d="M 2700.304,1408.648 A 1203.775,1203.775 0.00 0,1 2703.8,1501.0 Q 1500.0,1500.0 1340.7,316.9 A 1193.775,1193.775 0.00 0,1 1431.9,308.2 Q 1500.0,1500.0 2700.3,1408.6 Z" style="stroke-width: 2.0;  stroke: rgb(0,0,0); fill: rgb(247,42,66); opacity: 0.800;"/>
<path d="M 1612.052,2698.549 A 1203.775,1203.775 0.00 0,1 1519.8,2703.6 Q 1500.0,1500.0 590.6,726.6 A 1193.775,1193.775 0.00 0,1 652.6,659.1 Q 1500.0,1500.0 1612.1,2698.5 Z" style="stroke-width: 2.0;  stroke: rgb(0,0,0); fill: rgb(247,42,66); opacity: 0.800;"/>
</g>
<g id="cellvalues">
<path d="M 2688.710,1310.153 A 1203.775,1203.775 0.00 0,1 2700.3,1408.6 Q 1500.0,1500.0 451.0,2069.9 A 1193.775,1193.775 0.00 0,1 407.7,1981.6 Q 1500.0,1500.0 2688.7,1310.2 Z" style="stroke-width: 2.0;  stroke: rgb(0,0,0); fill: rgb(247,42,66); opacity: 0.800;"/>
<path d="M 2407.108,708.653 A 1203.775,1203.775 0.00 0,1 2470.0,787.1 Q 1500.0,1500.0 502.3,2155.4 A 1193.775,1193.775 0.00 0,1 451.0,2069.9 Q 1500.0,1500.0 2407.1,708.7 Z" style="stroke-width: 2.0;  stroke: rgb(0,0,0); fill: rgb(247,42,66); opacity: 0.800;"/>
</g>
<g id="cellvalues">
<path d="M 2481.574,803.159 A 1203.775,1203.775 0.00 0,1 2541.8,896.9 Q 1500.0,1500.0 567.1,2244.9 A 1193.775,1193.775 0.00 0,1 502.3,2155.4 Q 1500.0,1500.0 2481.6,803.2 Z" style="stroke-width: 2.0;  stroke: rgb(0,0,0); fill: rgb(247,42,66); opacity: 0.800;"/>
</g>
<g id="cellvalues">
<path d="M 2352.572,2349.821 A 1203.775,1203.775 0.00 0,1 2254.6,2437.9 Q 1500.0,1500.0 511.5,830.6 A 1193.775,1193.775 0.00 0,1 590.6,726.6 Q 1500.0,1500.0 2352.6,2349.8 Z" style="stroke-width: 2.0;  stroke: rgb(0,0,0); fill: rgb(247,42,66); opacity: 0.800;"/>
</g>
<g id="cellvalues">
<path d="M 1746.356,2678.297 A 1203.775,1203.775 0.00 0,1 1612.1,2698.5 Q 1500.0,1500.0 657.0,2345.2 A 1193.775,1193.775 0.00 0,1 567.1,2244.9 Q 1500.0,1500.0 1746.4,2678.3 Z" style="stroke-width: 2.0;  stroke: rgb(0,0,0); fill: rgb(247,42,66); opacity: 0.800;"/>
</g>
<g id="cellvalues">
<path d="M 1885.257,2640.461 A 1203.775,1203.775 0.00 0,1 1746.4,2678.3 Q 1500.0,1500.0 1017.0,2591.7 A 1193.775,1193.775 0.00 0,1 890.1,2526.2 Q 1500.0,1500.0 1885.3,2640.5 Z" style="stroke-width: 2.0;  stroke: rgb(0,0,0); fill: rgb(247,42,66); opacity: 0.800;"/>
</g>
<g id="cellvalues">
<path d="M 2458.711,2227.974 A 1203.775,1203.775 0.00 0,1 2352.6,2349.8 Q 1500.0,1500.0 312.9,1373.9 A 1193.775,1193.775 0.00 0,1 340.5,1216.1 Q 1500.0,1500.0 2458.7,2228.0 Z" style="stroke-width: 2.0;  stroke: rgb(0,0,0); fill: rgb(247,42,66); opacity: 0.800;"/>
</g>
<g id="cellvalues">
<path d="M 2556.165,2077.573 A 1203.775,1203.775 0.00 0,1 2458.7,2228.0 Q 1500.0,1500.0 791.8,2461.0 A 1193.775,1193.775 0.00 0,1 657.0,2345.2 Q 1500.0,1500.0 2556.2,2077.6 Z" style="stroke-width: 2.0;  stroke: rgb(0,0,0); fill: rgb(247,42,66); opacity: 0.800;"/>
<path d="M 2279.569,582.750 A 1203.775,1203.775 0.00 0,1 2407.1,708.7 Q 1500.0,1500.0 307.3,1551.6 A 1193.775,1193.775 0.00 0,1 312.9,1373.9 Q 1500.0,1500.0 2279.6,582.8 Z" style="stroke-width: 2.0;  stroke: rgb(0,0,0); fill: rgb(247,42,66); opacity: 0.800;"/>
</g>
<g id="cellvalues">
<path d="M 2062.356,2564.345 A 1203.775,1203.775 0.00 0,1 1885.3,2640.5 Q 1500.0,1500.0 1153.9,357.5 A 1193.775,1193.775 0.00 0,1 1340.7,316.9 Q 1500.0,1500.0 2062.4,2564.3 Z" style="stroke-width: 2.0;  stroke: rgb(0,0,0); fill: rgb(247,42,66); opacity: 0.800;"/>
</g>
<g id="cellvalues">
<path d="M 2640.151,1886.175 A 1203.775,1203.775 0.00 0,1 2556.2,2077.6 Q 1500.0,1500.0 961.5,434.6 A 1193.775,1193.775 0.00 0,1 1153.9,357.5 Q 1500.0,1500.0 2640.2,1886.2 Z" style="stroke-width: 2.0;  stroke: rgb(247,42,66); fill: rgb(0,0,0); opacity: 0.800;"/>
<path d="M 2239.059,2450.192 A 1203.775,1203.775 0.00 0,1 2062.4,2564.3 Q 1500.0,1500.0 334.5,1758.4 A 1193.775,1193.775 0.00 0,1 307.3,1551.6 Q 1500.0,1500.0 2239.1,2450.2 Z" style="stroke-width: 2.0;  stroke: rgb(247,42,66); fill: rgb(0,0,0); opacity: 0.800;"/>
</g>
<g id="cellvalues">
<path d="M 2105.635,459.673 A 1203.775,1203.775 0.00 0,1 2279.6,582.8 Q 1500.0,1500.0 782.1,546.2 A 1193.775,1193.775 0.00 0,1 961.5,434.6 Q 1500.0,1500.0 2105.6,459.7 Z" style="stroke-width: 2.0;  stroke: rgb(247,42,66); fill: rgb(0,0,0); opacity: 0.800;"/>
</g>
<g id="cellvalues">
<path d="M 2635.267,1099.697 A 1203.775,1203.775 0.00 0,1 2688.7,1310.2 Q 1500.0,1500.0 399.9,1963.6 A 1193.775,1193.775 0.00 0,1 334.5,1758.4 Q 1500.0,1500.0 2635.3,1099.7 Z" style="stroke-width: 2.0;  stroke: rgb(247,42,66); fill: rgb(0,0,0); opacity: 0.800;"/>
</g>
<g id="cellvalues">
<path d="M 2691.368,1672.382 A 1203.775,1203.775 0.00 0,1 2640.2,1886.2 Q 1500.0,1500.0 1223.6,2661.3 A 1193.775,1193.775 0.00 0,1 1017.0,2591.7 Q 1500.0,1500.0 2691.4,1672.4 Z" style="stroke-width: 2.0;  stroke: rgb(247,42,66); fill: rgb(0,0,0); opacity: 0.800;"/>
</g>
<g id="cellvalues">
<path d="M 1848.274,347.707 A 1203.775,1203.775 0.00 0,1 2105.6,459.7 Q 1500.0,1500.0 1500.0,2693.8 A 1193.775,1193.775 0.00 0,1 1223.6,2661.3 Q 1500.0,1500.0 1848.3,347.7 Z" style="stroke-width: 2.0;  stroke: rgb(247,42,66); fill: rgb(0,0,0); opacity: 0.800;"/>
</g>
<g id="cellvalues">
<path d="M 1500.000,296.225 A 1203.775,1203.775 0.00 0,1 1848.3,347.7 Q 1500.0,1500.0 360.2,1145.2 A 1193.775,1193.775 0.00 0,1 511.5,830.6 Q 1500.0,1500.0 1500.0,296.2 Z" style="stroke-width: 2.0;  stroke: rgb(0,0,0); fill: rgb(247,42,66); opacity: 0.800;"/>
</g>
<g id="plot0">
<g id="plot0-axis">
</g>
<text x="2142.6" y="284.4" style="fill: rgb(0,0,0); font-size: 48.0px; text-anchor: start" transform="rotate(296.8,2142.6,284.4)">A</text>
<text x="2682.0" y="2202.6" style="fill: rgb(0,0,0); font-size: 48.0px; text-anchor: start" transform="rotate(29.7,2682.0,2202.6)">D</text>
<text x="443.1" y="2379.5" style="fill: rgb(0,0,0); font-size: 48.0px; text-anchor: end" transform="rotate(321.3,443.1,2379.5)">G</text>
<text x="128.8" y="1602.5" style="fill: rgb(0,0,0); font-size: 48.0px; text-anchor: end" transform="rotate(356.7,128.8,1602.5)">H</text>
<text x="2726.8" y="879.0" style="fill: rgb(0,0,0); font-size: 48.0px; text-anchor: start" transform="rotate(332.1,2726.8,879.0)">B</text>
<text x="2869.8" y="1380.1" style="fill: rgb(0,0,0); font-size: 48.0px; text-anchor: start" transform="rotate(353.9,2869.8,1380.1)">C</text>
<text x="1933.8" y="2804.8" style="fill: rgb(0,0,0); font-size: 48.0px; text-anchor: start" transform="rotate(70.6,1933.8,2804.8)">E</text>
<text x="1104.8" y="2817.0" style="fill: rgb(0,0,0); font-size: 48.0px; text-anchor: end" transform="rotate(287.7,1104.8,2817.0)">F</text>
<text x="1029.8" y="207.9" style="fill: rgb(0,0,0); font-size: 48.0px; text-anchor: end" transform="rotate(71.0,1029.8,207.9)">J</text>
<text x="355.6" y="737.8" style="fill: rgb(0,0,0); font-size: 48.0px; text-anchor: end" transform="rotate(34.7,355.6,737.8)">I</text>
</g>
</svg>
