<?xml version="1.0" standalone="no"?>
<!DOCTYPE svg PUBLIC "-//W3C//DTD SVG 1.1//EN" "http://www.w3.org/Graphics/SVG/1.1/DTD/svg11.dtd">
<svg width="3000px" height="3000px" version="1.1" xmlns="http://www.w3.org/2000/svg" xmlns:xlink="http://www.w3.org/1999/xlink">
<g id="ideograms">
<g id="highlight0">
<path d="M 2443.281,768.345 A1193.775,1193.775 0.000 0,1 2447.024,773.196 L 2462.890,761.020 A1213.775,1213.775 0.000 0,0 2459.084,756.087 Z " style="stroke-width: 1.0; stroke: rgb(0,0,0); fill: rgb(230,46,46); " />
</g>
<g id="highlight1">
<path d="M 2080.307,445.335 A1203.775,1203.775 0.000 0,1 2454.957,767.108 L 2470.823,754.931 A1223.775,1223.775 0.000 0,0 2089.949,427.813 Z " style="stroke-width: 1.0; stroke: rgb(0,0,0); fill: rgb(230,46,46); " />
<path d="M 2701.287,1422.645 A1203.775,1203.775 0.000 0,1 2703.674,1484.380 L 2723.672,1484.120 A1223.775,1223.775 0.000 0,0 2721.246,1421.359 Z " style="stroke-width: 1.0; stroke: rgb(0,0,0); fill: rgb(184,230,46); " />
<path d="M 2631.132,1088.158 A1203.775,1203.775 0.000 0,1 2701.668,1428.812 L 2721.633,1427.629 A1223.775,1223.775 0.000 0,0 2649.925,1081.315 Z " style="stroke-width: 1.0; stroke: rgb(0,0,0); fill: rgb(46,229,138); " />
<path d="M 1496.911,296.229 A1203.775,1203.775 0.000 0,1 2085.713,448.328 L 2095.444,430.855 A1223.775,1223.775 0.000 0,0 1496.859,276.229 Z " style="stroke-width: 1.0; stroke: rgb(0,0,0); fill: rgb(46,92,230); " />
<path d="M 2451.183,762.216 A1203.775,1203.775 0.000 0,1 2633.231,1093.969 L 2652.059,1087.223 A1223.775,1223.775 0.000 0,0 2466.986,749.958 Z " style="stroke-width: 1.0; stroke: rgb(0,0,0); fill: rgb(230,46,230); " />
</g>
<path d="M 1496.856,275.004 A1225.000,1225.000 0.000 0,1 2724.897,1484.104 L 2774.893,1483.455 A1275.000,1275.000 0.000 0,0 1496.728,225.004 Z " style="stroke: none;  fill: rgb(230,46,46); " />
<g id="highlight0">
</g>
<g id="highlight1">
</g>
<g id="highlight0">
<path d="M 2643.935,1841.336 A1193.775,1193.775 0.000 0,1 2592.090,1982.118 L 2610.387,1990.195 A1213.775,1213.775 0.000 0,0 2663.100,1847.055 Z " style="stroke-width: 1.0; stroke: rgb(0,0,0); fill: rgb(230,46,46); " />
<path d="M 2680.121,1680.036 A1193.775,1193.775 0.000 0,1 2679.181,1686.091 L 2698.937,1689.209 A1213.775,1213.775 0.000 0,0 2699.892,1683.053 Z " style="stroke-width: 1.0; stroke: rgb(0,0,0); fill: rgb(184,230,46); " />
</g>
<g id="highlight1">
<path d="M 2703.775,1499.965 A1203.775,1203.775 0.000 0,1 2689.059,1687.650 L 2708.815,1690.768 A1223.775,1223.775 0.000 0,0 2723.775,1499.965 Z " style="stroke-width: 1.0; stroke: rgb(0,0,0); fill: rgb(184,230,46); " />
<path d="M 2690.007,1681.544 A1203.775,1203.775 0.000 0,1 2651.736,1850.112 L 2670.871,1855.929 A1223.775,1223.775 0.000 0,0 2709.778,1684.561 Z " style="stroke-width: 1.0; stroke: rgb(0,0,0); fill: rgb(46,229,138); " />
<path d="M 2540.998,2104.481 A1203.775,1203.775 0.000 0,1 2482.577,2195.426 L 2498.902,2206.980 A1223.775,1223.775 0.000 0,0 2558.294,2114.524 Z " style="stroke-width: 1.0; stroke: rgb(0,0,0); fill: rgb(46,92,230); " />
<path d="M 2603.719,1980.497 A1203.775,1203.775 0.000 0,1 2537.882,2109.816 L 2555.126,2119.948 A1223.775,1223.775 0.000 0,0 2622.057,1988.480 Z " style="stroke-width: 1.0; stroke: rgb(0,0,0); fill: rgb(230,46,230); " />
</g>
<path d="M 2725.000,1499.965 A1225.000,1225.000 0.000 0,1 2499.902,2207.687 L 2540.714,2236.573 A1275.000,1275.000 0.000 0,0 2775.000,1499.963 Z " style="stroke: none;  fill: rgb(184,230,46); " />
<g id="highlight0">
</g>
<g id="highlight1">
</g>
<g id="highlight0">
<path d="M 2465.404,2202.207 A1193.775,1193.775 0.000 0,1 2189.733,2474.355 L 2201.289,2490.679 A1213.775,1213.775 0.000 0,0 2481.578,2213.971 Z " style="stroke-width: 1.0; stroke: rgb(0,0,0); fill: rgb(230,46,46); " />
<path d="M 2194.725,2470.802 A1193.775,1193.775 0.000 0,1 1905.444,2622.815 L 1912.236,2641.626 A1213.775,1213.775 0.000 0,0 2206.364,2487.066 Z " style="stroke-width: 1.0; stroke: rgb(0,0,0); fill: rgb(184,230,46); " />
<path d="M 1601.051,2689.490 A1193.775,1193.775 0.000 0,1 1594.944,2689.993 L 1596.535,2709.930 A1213.775,1213.775 0.000 0,0 1602.744,2709.419 Z " style="stroke-width: 1.0; stroke: rgb(0,0,0); fill: rgb(46,229,138); " />
</g>
<g id="highlight1">
<path d="M 1914.646,2630.107 A1203.775,1203.775 0.000 0,1 1595.740,2699.962 L 1597.330,2719.898 A1223.775,1223.775 0.000 0,0 1921.535,2648.884 Z " style="stroke-width: 1.0; stroke: rgb(0,0,0); fill: rgb(46,229,138); " />
<path d="M 1312.384,2689.065 A1203.775,1203.775 0.000 0,1 1206.477,2667.441 L 1201.600,2686.837 A1223.775,1223.775 0.000 0,0 1309.267,2708.820 Z " style="stroke-width: 1.0; stroke: rgb(0,0,0); fill: rgb(46,92,230); " />
<path d="M 1601.898,2699.455 A1203.775,1203.775 0.000 0,1 1306.283,2688.086 L 1303.065,2707.825 A1223.775,1223.775 0.000 0,0 1603.591,2719.383 Z " style="stroke-width: 1.0; stroke: rgb(0,0,0); fill: rgb(230,46,230); " />
</g>
<path d="M 2490.655,2220.574 A1225.000,1225.000 0.000 0,1 1201.301,2688.025 L 1189.109,2736.516 A1275.000,1275.000 0.000 0,0 2531.090,2249.985 Z " style="stroke: none;  fill: rgb(46,229,138); " />
<g id="highlight0">
</g>
<g id="highlight1">
</g>
<g id="highlight0">
<path d="M 455.627,2078.259 A1193.775,1193.775 0.000 0,1 349.335,1817.912 L 330.057,1823.239 A1213.775,1213.775 0.000 0,0 438.130,2087.947 Z " style="stroke-width: 1.0; stroke: rgb(0,0,0); fill: rgb(230,46,46); " />
<path d="M 350.982,1823.814 A1193.775,1193.775 0.000 0,1 307.113,1546.048 L 287.128,1546.819 A1213.775,1213.775 0.000 0,0 331.732,1829.239 Z " style="stroke-width: 1.0; stroke: rgb(0,0,0); fill: rgb(184,230,46); " />
<path d="M 307.366,1552.170 A1193.775,1193.775 0.000 0,1 306.541,1472.532 L 286.546,1472.072 A1213.775,1213.775 0.000 0,0 287.385,1553.044 Z " style="stroke-width: 1.0; stroke: rgb(0,0,0); fill: rgb(46,229,138); " />
<path d="M 455.627,2078.259 A1193.775,1193.775 0.000 0,1 452.673,2072.891 L 435.126,2082.489 A1213.775,1213.775 0.000 0,0 438.130,2087.947 Z " style="stroke-width: 1.0; stroke: rgb(0,0,0); fill: rgb(46,92,230); " />
</g>
<g id="highlight1">
<path d="M 740.525,2433.955 A1203.775,1203.775 0.000 0,1 443.900,2077.690 L 426.353,2087.288 A1223.775,1223.775 0.000 0,0 727.907,2449.472 Z " style="stroke-width: 1.0; stroke: rgb(0,0,0); fill: rgb(46,92,230); " />
<path d="M 1191.386,2663.543 A1203.775,1203.775 0.000 0,1 735.741,2430.045 L 723.044,2445.497 A1223.775,1223.775 0.000 0,0 1186.259,2682.874 Z " style="stroke-width: 1.0; stroke: rgb(0,0,0); fill: rgb(230,46,230); " />
</g>
<path d="M 1185.945,2684.058 A1225.000,1225.000 0.000 0,1 275.324,1471.814 L 225.338,1470.663 A1275.000,1275.000 0.000 0,0 1173.126,2732.387 Z " style="stroke: none;  fill: rgb(46,92,230); " />
<g id="highlight0">
</g>
<g id="highlight1">
</g>
<g id="highlight0">
<path d="M 732.609,585.555 A1193.775,1193.775 0.000 0,1 1060.111,390.227 L 1052.741,371.634 A1213.775,1213.775 0.000 0,0 719.753,570.234 Z " style="stroke-width: 1.0; stroke: rgb(0,0,0); fill: rgb(230,46,46); " />
<path d="M 1054.420,392.500 A1193.775,1193.775 0.000 0,1 1383.625,311.911 L 1381.676,292.006 A1213.775,1213.775 0.000 0,0 1046.955,373.945 Z " style="stroke-width: 1.0; stroke: rgb(0,0,0); fill: rgb(184,230,46); " />
<path d="M 1377.529,312.524 A1193.775,1193.775 0.000 0,1 1481.480,306.369 L 1481.170,286.371 A1213.775,1213.775 0.000 0,0 1375.477,292.629 Z " style="stroke-width: 1.0; stroke: rgb(0,0,0); fill: rgb(46,229,138); " />
<path d="M 449.713,932.553 A1193.775,1193.775 0.000 0,1 737.313,581.628 L 724.535,566.242 A1213.775,1213.775 0.000 0,0 432.117,923.046 Z " style="stroke-width: 1.0; stroke: rgb(0,0,0); fill: rgb(46,92,230); " />
<path d="M 449.713,932.553 A1193.775,1193.775 0.000 0,1 452.640,927.169 L 435.093,917.572 A1213.775,1213.775 0.000 0,0 432.117,923.046 Z " style="stroke-width: 1.0; stroke: rgb(0,0,0); fill: rgb(230,46,230); " />
</g>
<g id="highlight1">
<path d="M 297.003,1456.723 A1203.775,1203.775 0.000 0,1 443.866,922.371 L 426.319,912.774 A1223.775,1223.775 0.000 0,0 277.016,1456.004 Z " style="stroke-width: 1.0; stroke: rgb(0,0,0); fill: rgb(230,46,230); " />
</g>
<path d="M 275.792,1455.960 A1225.000,1225.000 0.000 0,1 1480.996,275.147 L 1480.220,225.153 A1275.000,1275.000 0.000 0,0 225.824,1454.162 Z " style="stroke: none;  fill: rgb(230,46,230); " />
<g id="highlight0">
</g>
<g id="highlight1">
</g>
</g>
<g id="cellvalues">
<path d="M 2701.482,1425.728 A 1203.775,1203.775 0.00 0,1 2703.6,1481.3 Q 1500.0,1500.0 2643.1,1844.3 A 1193.775,1193.775 0.00 0,1 2593.3,1979.3 Q 1500.0,1500.0 2701.5,1425.7 Z" style="stroke-width: 1.0;  stroke: rgb(0,0,0); fill: rgb(230,46,46); opacity: 0.800;"/>
</g>
<g id="cellvalues">
<path d="M 1309.333,2688.579 A 1203.775,1203.775 0.00 0,1 1209.5,2668.2 Q 1500.0,1500.0 307.2,1549.1 A 1193.775,1193.775 0.00 0,1 306.5,1475.6 Q 1500.0,1500.0 1309.3,2688.6 Z" style="stroke-width: 1.0;  stroke: rgb(0,0,0); fill: rgb(46,229,138); opacity: 0.800;"/>
<path d="M 2539.443,2107.151 A 1203.775,1203.775 0.00 0,1 2484.4,2192.9 Q 1500.0,1500.0 350.2,1820.9 A 1193.775,1193.775 0.00 0,1 307.2,1549.1 Q 1500.0,1500.0 2539.4,2107.2 Z" style="stroke-width: 1.0;  stroke: rgb(0,0,0); fill: rgb(184,230,46); opacity: 0.800;"/>
</g>
<g id="cellvalues">
<path d="M 2602.483,1983.328 A 1203.775,1203.775 0.00 0,1 2539.4,2107.2 Q 1500.0,1500.0 1057.3,391.4 A 1193.775,1193.775 0.00 0,1 1380.6,312.2 Q 1500.0,1500.0 2602.5,1983.3 Z" style="stroke-width: 1.0;  stroke: rgb(0,0,0); fill: rgb(184,230,46); opacity: 0.800;"/>
</g>
<g id="cellvalues">
<path d="M 2689.537,1684.598 A 1203.775,1203.775 0.00 0,1 2652.6,1847.2 Q 1500.0,1500.0 2192.2,2472.6 A 1193.775,1193.775 0.00 0,1 1908.3,2621.8 Q 1500.0,1500.0 2689.5,1684.6 Z" style="stroke-width: 1.0;  stroke: rgb(0,0,0); fill: rgb(184,230,46); opacity: 0.800;"/>
</g>
<g id="cellvalues">
<path d="M 2703.771,1503.055 A 1203.775,1203.775 0.00 0,1 2689.5,1684.6 Q 1500.0,1500.0 2679.7,1683.1 A 1193.775,1193.775 0.00 0,0 2679.7,1683.1 Q 1500.0,1500.0 2703.8,1503.1 Z" style="stroke-width: 1.0;  stroke: rgb(0,0,0); fill: rgb(184,230,46); opacity: 0.800;"/>
</g>
<g id="cellvalues">
<path d="M 1598.819,2699.712 A 1203.775,1203.775 0.00 0,1 1309.3,2688.6 Q 1500.0,1500.0 1380.6,312.2 A 1193.775,1193.775 0.00 0,1 1478.4,306.4 Q 1500.0,1500.0 1598.8,2699.7 Z" style="stroke-width: 1.0;  stroke: rgb(0,0,0); fill: rgb(46,229,138); opacity: 0.800;"/>
</g>
<g id="cellvalues">
<path d="M 1911.744,2631.168 A 1203.775,1203.775 0.00 0,1 1598.8,2699.7 Q 1500.0,1500.0 1598.0,2689.7 A 1193.775,1193.775 0.00 0,0 1598.0,2689.7 Q 1500.0,1500.0 1911.7,2631.2 Z" style="stroke-width: 1.0;  stroke: rgb(0,0,0); fill: rgb(46,229,138); opacity: 0.800;"/>
</g>
<g id="cellvalues">
<path d="M 2632.185,1091.062 A 1203.775,1203.775 0.00 0,1 2701.5,1425.7 Q 1500.0,1500.0 2463.6,2204.7 A 1193.775,1193.775 0.00 0,1 2192.2,2472.6 Q 1500.0,1500.0 2632.2,1091.1 Z" style="stroke-width: 1.0;  stroke: rgb(0,0,0); fill: rgb(230,46,46); opacity: 0.800;"/>
</g>
<g id="cellvalues">
<path d="M 2453.073,764.659 A 1203.775,1203.775 0.00 0,1 2632.2,1091.1 Q 1500.0,1500.0 735.0,583.6 A 1193.775,1193.775 0.00 0,1 1057.3,391.4 Q 1500.0,1500.0 2453.1,764.7 Z" style="stroke-width: 1.0;  stroke: rgb(0,0,0); fill: rgb(230,46,46); opacity: 0.800;"/>
</g>
<g id="cellvalues">
<path d="M 738.131,2432.003 A 1203.775,1203.775 0.00 0,1 445.4,2080.4 Q 1500.0,1500.0 454.1,2075.6 A 1193.775,1193.775 0.00 0,0 454.1,2075.6 Q 1500.0,1500.0 738.1,2432.0 Z" style="stroke-width: 1.0;  stroke: rgb(0,0,0); fill: rgb(46,92,230); opacity: 0.800;"/>
</g>
<g id="cellvalues">
<path d="M 2083.012,446.828 A 1203.775,1203.775 0.00 0,1 2453.1,764.7 Q 1500.0,1500.0 2445.2,770.8 A 1193.775,1193.775 0.00 0,0 2445.2,770.8 Q 1500.0,1500.0 2083.0,446.8 Z" style="stroke-width: 1.0;  stroke: rgb(0,0,0); fill: rgb(230,46,46); opacity: 0.800;"/>
</g>
<g id="cellvalues">
<path d="M 1188.401,2662.747 A 1203.775,1203.775 0.00 0,1 738.1,2432.0 Q 1500.0,1500.0 451.2,929.9 A 1193.775,1193.775 0.00 0,1 735.0,583.6 Q 1500.0,1500.0 1188.4,2662.7 Z" style="stroke-width: 1.0;  stroke: rgb(0,0,0); fill: rgb(46,92,230); opacity: 0.800;"/>
</g>
<g id="cellvalues">
<path d="M 297.118,1453.636 A 1203.775,1203.775 0.00 0,1 442.4,925.1 Q 1500.0,1500.0 451.2,929.9 A 1193.775,1193.775 0.00 0,0 451.2,929.9 Q 1500.0,1500.0 297.1,1453.6 Z" style="stroke-width: 1.0;  stroke: rgb(0,0,0); fill: rgb(230,46,230); opacity: 0.800;"/>
</g>
<g id="cellvalues">
<path d="M 1500.000,296.225 A 1203.775,1203.775 0.00 0,1 2083.0,446.8 Q 1500.0,1500.0 454.1,2075.6 A 1193.775,1193.775 0.00 0,1 350.2,1820.9 Q 1500.0,1500.0 1500.0,296.2 Z" style="stroke-width: 1.0;  stroke: rgb(0,0,0); fill: rgb(230,46,46); opacity: 0.800;"/>
</g>
<g id="plot0">
<g id="plot0-axis">
</g>
<text x="2482.0" y="537.5" style="fill: rgb(0,0,0); font-size: 48.0px; text-anchor: start" transform="rotate(314.6,2482.0,537.5)">A</text>
<text x="415.5" y="2345.3" style="fill: rgb(0,0,0); font-size: 48.0px; text-anchor: end" transform="rotate(323.1,415.5,2345.3)">D</text>
<text x="2802.7" y="1940.0" style="fill: rgb(0,0,0); font-size: 48.0px; text-anchor: start" transform="rotate(17.6,2802.7,1940.0)">B</text>
<text x="1944.6" y="2801.1" style="fill: rgb(0,0,0); font-size: 48.0px; text-anchor: start" transform="rotate(70.1,1944.6,2801.1)">C</text>
<text x="520.4" y="535.1" style="fill: rgb(0,0,0); font-size: 48.0px; text-anchor: end" transform="rotate(45.6,520.4,535.1)">E</text>
</g>
</svg>
